<?xml version="1.0" encoding="UTF-8"?> <svg xmlns="http://www.w3.org/2000/svg" xmlns:xlink="http://www.w3.org/1999/xlink" xmlns:svgjs="http://svgjs.com/svgjs" version="1.1" width="512" height="512" x="0" y="0" viewBox="0 0 512 512" style="enable-background:new 0 0 512 512" xml:space="preserve" class=""><g> <g xmlns="http://www.w3.org/2000/svg"> <g> <g> <path d="M464,4.296H48c-26.51,0-48,21.49-48,48v160c0,26.51,21.49,48,48,48h416c26.51,0,48-21.49,48-48v-160 C512,25.786,490.51,4.296,464,4.296z M480,212.296c0,8.837-7.163,16-16,16H48c-8.837,0-16-7.163-16-16v-160 c0-8.837,7.163-16,16-16h416c8.837,0,16,7.163,16,16V212.296z" fill="#18a558" data-original="#000000" style="" class=""></path> <rect x="384" y="164.296" width="64" height="32" fill="#18a558" data-original="#000000" style="" class=""></rect> <rect x="320" y="164.296" width="32" height="32" fill="#18a558" data-original="#000000" style="" class=""></rect> <rect x="256" y="164.296" width="32" height="32" fill="#18a558" data-original="#000000" style="" class=""></rect> <rect x="64" y="164.296" width="160" height="32" fill="#18a558" data-original="#000000" style="" class=""></rect> <rect x="160" y="100.296" width="192" height="32" fill="#18a558" data-original="#000000" style="" class=""></rect> <path d="M267.488,377.096C259.712,369.224,256,365,256,355.592c0-9.36,3.504-13.312,11.424-21.376 c5.76-5.38,10.674-11.6,14.576-18.448l-28.304-14.944c-2.502,4.055-5.561,7.739-9.088,10.944 c-24.23,20.105-27.574,56.045-7.469,80.275c2.253,2.716,4.754,5.216,7.469,7.469c7.904,8,11.392,12,11.392,21.312 s-3.488,13.312-11.392,21.392c-5.801,5.44-10.733,11.737-14.624,18.672l28.352,14.816c2.516-4.111,5.597-7.849,9.152-11.104 c24.164-20.088,27.468-55.96,7.38-80.124C272.639,381.795,270.169,379.325,267.488,377.096z" fill="#18a558" data-original="#000000" style="" class=""></path> <path d="M139.488,409.096C131.712,401.224,128,397,128,387.592c0-9.36,3.504-13.312,11.424-21.376 c5.76-5.38,10.674-11.6,14.576-18.448l-28.304-14.944c-2.502,4.055-5.561,7.739-9.088,10.944 c-24.23,20.105-27.574,56.045-7.469,80.275c2.253,2.716,4.754,5.216,7.469,7.469c7.904,8,11.392,12,11.392,21.312 s-3.488,13.312-11.392,21.392c-5.801,5.44-10.733,11.737-14.624,18.672l28.352,14.816c2.516-4.111,5.597-7.849,9.152-11.104 c24.164-20.088,27.468-55.96,7.38-80.124C144.639,413.795,142.169,411.325,139.488,409.096z" fill="#18a558" data-original="#000000" style="" class=""></path> <path d="M395.488,409.096C387.712,401.224,384,397,384,387.592c0-9.36,3.504-13.312,11.424-21.376 c5.76-5.38,10.674-11.6,14.576-18.448l-28.304-14.944c-2.502,4.055-5.561,7.739-9.088,10.944 c-24.23,20.105-27.574,56.045-7.469,80.275c2.253,2.716,4.754,5.216,7.469,7.469c7.904,8,11.392,12,11.392,21.312 s-3.488,13.312-11.392,21.392c-5.801,5.44-10.733,11.737-14.624,18.672l28.352,14.816c2.516-4.111,5.597-7.849,9.152-11.104 c24.164-20.088,27.468-55.96,7.38-80.124C400.639,413.795,398.169,411.325,395.488,409.096z" fill="#18a558" data-original="#000000" style="" class=""></path> </g> </g> </g> <g xmlns="http://www.w3.org/2000/svg"> </g> <g xmlns="http://www.w3.org/2000/svg"> </g> <g xmlns="http://www.w3.org/2000/svg"> </g> <g xmlns="http://www.w3.org/2000/svg"> </g> <g xmlns="http://www.w3.org/2000/svg"> </g> <g xmlns="http://www.w3.org/2000/svg"> </g> <g xmlns="http://www.w3.org/2000/svg"> </g> <g xmlns="http://www.w3.org/2000/svg"> </g> <g xmlns="http://www.w3.org/2000/svg"> </g> <g xmlns="http://www.w3.org/2000/svg"> </g> <g xmlns="http://www.w3.org/2000/svg"> </g> <g xmlns="http://www.w3.org/2000/svg"> </g> <g xmlns="http://www.w3.org/2000/svg"> </g> <g xmlns="http://www.w3.org/2000/svg"> </g> <g xmlns="http://www.w3.org/2000/svg"> </g> </g></svg> 