<?xml version="1.0" encoding="UTF-8"?> <svg xmlns="http://www.w3.org/2000/svg" xmlns:xlink="http://www.w3.org/1999/xlink" xmlns:svgjs="http://svgjs.com/svgjs" version="1.1" width="512" height="512" x="0" y="0" viewBox="0 0 512 511" style="enable-background:new 0 0 512 512" xml:space="preserve" class=""><g><path xmlns="http://www.w3.org/2000/svg" d="m482 362.46875v-204.839844l-226-157.128906-226 157.128906v204.839844h-30v150h512v-150zm-60 0v-62h30v62zm-242 90h152v30h-152zm152-30h-152v-30h152zm-152-60v-182h152v182zm272-92h-90v-90h90zm-96.652344-120-48.382812-77.996094 112.183594 77.996094zm-35.304687 0h-128.085938l64.042969-103.242188zm-163.390625 0h-63.800782l112.183594-77.996094zm-6.652344 30v90h-90v-90zm0 120v62h-30v-62zm212 0h30v62h-30zm-302 0h30v62h-30zm-30 92h120v90h-120zm452 90h-120v-90h120zm0 0" fill="#18a558" data-original="#000000" style=""></path></g></svg> 