<?xml version="1.0" encoding="UTF-8"?> <svg xmlns="http://www.w3.org/2000/svg" width="500" height="371" viewBox="0 0 500 371" fill="none"><g clip-path="url(#clip0)"><path opacity="0.1" d="M220.372 13.9926C200.584 5.9481 179.678 -0.767643 158.336 0.0763149C126.957 1.31083 96.8621 20.1876 82.0884 47.8991C69.5682 71.3773 68.0239 98.8957 62.6325 124.951C55.9796 157.057 43.2573 187.556 29.6642 217.391C22.3649 233.417 14.6616 249.789 13.4674 267.359C11.802 291.744 23.4603 316.049 41.749 332.272C60.0377 348.496 84.315 357.057 108.687 358.924C121.656 359.916 135.208 358.996 146.732 352.958C158.915 346.575 167.804 335.033 180.037 328.739C191.376 322.904 204.642 322.082 217.373 322.845C234.047 323.846 250.477 327.338 266.116 333.206C283.911 339.89 300.458 349.564 318.212 356.343C335.967 363.122 355.804 366.897 373.954 361.245C390.986 355.935 404.48 343.037 416.601 329.974C436.545 308.527 454.735 285.514 470.996 261.155C481.954 244.743 492.153 227.424 497.001 208.291C506.262 171.714 493.513 130.445 465.236 105.49C441.821 84.7818 410.379 75.8035 379.601 70.3358C351.535 65.3663 319.083 65.0566 293.248 52.1009C268.612 39.7468 246.193 24.4972 220.372 13.9926Z" fill="#18A558"></path><path d="M419.299 258.987L420.048 259.741L420.385 258.444L420.026 257.165H419.101L419.299 258.987Z" fill="#464A5F"></path><path opacity="0.1" d="M419.299 258.987L420.048 259.741L420.385 258.444L420.026 257.165H419.101L419.299 258.987Z" fill="black"></path><path d="M419.299 258.987L420.026 259.764L419.299 260.616L418.518 260.325L418.325 259.948L419.299 258.987Z" fill="#9C9CA1"></path><path opacity="0.1" d="M419.299 258.987L420.026 259.764L419.299 260.616L418.518 260.325L418.325 259.948L419.299 258.987Z" fill="black"></path><path d="M281.114 122.616L199.017 204.714C197.541 206.19 196.71 208.19 196.706 210.278C196.702 212.365 197.524 214.369 198.994 215.851L324.834 342.692C326.305 344.174 328.304 345.012 330.393 345.023C332.481 345.034 334.489 344.217 335.976 342.75L419.299 260.621L281.114 122.616Z" fill="#9C9CA1"></path><path opacity="0.1" d="M281.114 122.616L199.017 204.714C197.541 206.19 196.71 208.19 196.706 210.278C196.702 212.365 197.524 214.369 198.994 215.851L324.834 342.692C326.305 344.174 328.304 345.012 330.393 345.023C332.481 345.034 334.489 344.217 335.976 342.75L419.299 260.621L281.114 122.616Z" fill="#DADADA"></path><path d="M281.114 120.987L199.017 203.084C197.541 204.56 196.71 206.561 196.706 208.648C196.702 210.736 197.524 212.74 198.994 214.222L324.834 341.058C326.305 342.54 328.303 343.379 330.392 343.391C332.48 343.403 334.488 342.586 335.976 341.12L419.299 258.969L281.114 120.987Z" fill="#DADADA"></path><path d="M289.733 63.2789L282.201 120.444L420.385 258.444L428.322 200.337C428.502 199.037 428.374 197.713 427.95 196.471C427.526 195.229 426.817 194.104 425.88 193.186L292.553 62.3002C292.33 62.0845 292.053 61.9348 291.751 61.8677C291.449 61.8007 291.134 61.8189 290.841 61.9204C290.549 62.0219 290.29 62.2027 290.095 62.4426C289.899 62.6825 289.774 62.972 289.733 63.2789Z" fill="#464A5F"></path><path opacity="0.1" d="M289.733 63.2789L282.201 120.444L420.385 258.444L428.322 200.337C428.502 199.037 428.374 197.713 427.95 196.471C427.526 195.229 426.817 194.104 425.88 193.186L292.553 62.3002C292.33 62.0845 292.053 61.9348 291.751 61.8677C291.449 61.8007 291.134 61.8189 290.841 61.9204C290.549 62.0219 290.29 62.2027 290.095 62.4426C289.899 62.6825 289.774 62.972 289.733 63.2789Z" fill="black"></path><path d="M288.647 63.822L281.114 120.987L419.299 258.987L427.236 200.88C427.415 199.58 427.288 198.256 426.864 197.014C426.44 195.773 425.731 194.647 424.794 193.729L291.466 62.8434C291.244 62.6277 290.967 62.478 290.664 62.4109C290.362 62.3438 290.047 62.3621 289.755 62.4636C289.462 62.5651 289.204 62.7459 289.008 62.9858C288.813 63.2256 288.688 63.5152 288.647 63.822Z" fill="#7E7E7E"></path><g opacity="0.1"><path opacity="0.1" d="M281.482 147.257L276.486 152.298C276.338 152.446 276.221 152.621 276.141 152.813C276.061 153.006 276.02 153.212 276.02 153.421C276.02 153.629 276.061 153.836 276.141 154.028C276.221 154.221 276.338 154.396 276.486 154.543L281.55 159.737C281.842 160.04 282.242 160.215 282.663 160.224C283.083 160.232 283.49 160.073 283.794 159.782L288.768 155.086C289.071 154.801 289.249 154.407 289.264 153.992C289.279 153.576 289.13 153.171 288.849 152.864L283.785 147.324C283.642 147.163 283.467 147.033 283.271 146.942C283.076 146.851 282.864 146.801 282.648 146.795C282.433 146.788 282.218 146.826 282.018 146.906C281.817 146.985 281.635 147.105 281.482 147.257Z" fill="black"></path><path opacity="0.1" d="M290.793 156.572L285.814 161.609C285.523 161.905 285.36 162.304 285.36 162.72C285.36 163.136 285.523 163.535 285.814 163.831L290.878 169.025C291.022 169.176 291.195 169.296 291.386 169.38C291.577 169.464 291.783 169.509 291.991 169.513C292.2 169.518 292.407 169.481 292.601 169.404C292.795 169.328 292.973 169.215 293.123 169.07L298.097 164.379C298.404 164.091 298.585 163.694 298.6 163.273C298.615 162.853 298.463 162.443 298.177 162.134L293.096 156.608C292.95 156.449 292.774 156.321 292.577 156.233C292.38 156.145 292.168 156.097 291.952 156.094C291.736 156.091 291.522 156.131 291.323 156.214C291.124 156.296 290.943 156.418 290.793 156.572Z" fill="black"></path><path opacity="0.1" d="M300.57 166.345L295.592 171.386C295.301 171.683 295.139 172.082 295.139 172.497C295.139 172.913 295.301 173.311 295.592 173.608L300.66 178.802C300.952 179.105 301.352 179.28 301.773 179.289C302.194 179.297 302.601 179.138 302.904 178.847L307.878 174.151C308.181 173.866 308.359 173.473 308.374 173.057C308.389 172.641 308.24 172.236 307.959 171.929L302.895 166.39C302.75 166.227 302.573 166.095 302.374 166.004C302.176 165.913 301.961 165.864 301.743 165.859C301.524 165.855 301.307 165.896 301.106 165.98C300.904 166.063 300.722 166.188 300.57 166.345Z" fill="black"></path><path opacity="0.1" d="M310.455 176.234L305.481 181.298C305.191 181.595 305.028 181.994 305.028 182.409C305.028 182.825 305.191 183.223 305.481 183.52L310.549 188.714C310.841 189.017 311.242 189.192 311.662 189.201C312.083 189.209 312.49 189.05 312.794 188.759L317.763 184.064C318.068 183.779 318.247 183.386 318.263 182.97C318.279 182.554 318.13 182.148 317.849 181.841L312.758 176.279C312.613 176.12 312.437 175.993 312.24 175.904C312.044 175.815 311.832 175.767 311.616 175.763C311.401 175.759 311.187 175.798 310.987 175.879C310.788 175.96 310.607 176.081 310.455 176.234Z" fill="black"></path><path opacity="0.1" d="M320.345 186.124L315.371 191.174C315.074 191.472 314.907 191.876 314.907 192.297C314.907 192.717 315.074 193.121 315.371 193.419L320.439 198.613C320.731 198.916 321.131 199.091 321.552 199.099C321.973 199.108 322.38 198.949 322.684 198.658L327.653 193.962C327.957 193.678 328.137 193.285 328.153 192.869C328.169 192.452 328.02 192.047 327.738 191.74L322.675 186.2C322.531 186.035 322.355 185.901 322.158 185.807C321.96 185.713 321.745 185.661 321.526 185.654C321.308 185.646 321.09 185.685 320.886 185.765C320.683 185.846 320.499 185.969 320.345 186.124Z" fill="black"></path><path opacity="0.1" d="M330.858 195.381L324.677 201.643C324.541 201.782 324.465 201.969 324.465 202.164C324.465 202.358 324.541 202.545 324.677 202.684L330.903 209.064C331.042 209.2 331.229 209.276 331.424 209.276C331.619 209.276 331.806 209.2 331.945 209.064L338.126 203.228C338.268 203.094 338.352 202.909 338.358 202.714C338.365 202.519 338.295 202.33 338.162 202.186L331.94 195.381C331.871 195.307 331.787 195.249 331.694 195.209C331.601 195.169 331.501 195.148 331.399 195.148C331.298 195.148 331.198 195.169 331.105 195.209C331.012 195.249 330.928 195.307 330.858 195.381Z" fill="black"></path><path opacity="0.1" d="M340.748 205.27L334.566 211.555C334.431 211.693 334.355 211.88 334.355 212.074C334.355 212.267 334.431 212.454 334.566 212.592L340.793 218.976C340.932 219.112 341.119 219.188 341.314 219.188C341.508 219.188 341.695 219.112 341.834 218.976L348.016 213.14C348.158 213.006 348.241 212.821 348.248 212.626C348.255 212.431 348.184 212.242 348.052 212.098L341.83 205.293C341.762 205.218 341.679 205.157 341.587 205.115C341.495 205.074 341.395 205.051 341.294 205.049C341.192 205.047 341.092 205.065 340.998 205.103C340.904 205.141 340.819 205.198 340.748 205.27Z" fill="black"></path><path opacity="0.1" d="M349.502 214.024L343.32 220.309C343.184 220.447 343.108 220.633 343.108 220.827C343.108 221.021 343.184 221.207 343.32 221.346L349.547 227.729C349.686 227.865 349.873 227.942 350.067 227.942C350.262 227.942 350.449 227.865 350.588 227.729L356.77 221.893C356.912 221.76 356.995 221.575 357.002 221.38C357.008 221.185 356.938 220.995 356.806 220.852L350.579 214.069C350.513 213.993 350.431 213.932 350.34 213.888C350.25 213.845 350.151 213.82 350.05 213.816C349.949 213.812 349.849 213.828 349.755 213.864C349.66 213.9 349.574 213.954 349.502 214.024Z" fill="black"></path><path opacity="0.1" d="M359.306 223.828L353.124 230.086C352.987 230.225 352.911 230.412 352.911 230.607C352.911 230.802 352.987 230.989 353.124 231.128L359.351 237.507C359.49 237.644 359.677 237.721 359.872 237.721C360.067 237.721 360.254 237.644 360.392 237.507L366.574 231.671C366.715 231.536 366.797 231.352 366.804 231.157C366.811 230.963 366.741 230.773 366.61 230.629L360.388 223.824C360.318 223.751 360.234 223.692 360.141 223.653C360.047 223.613 359.947 223.593 359.846 223.593C359.745 223.594 359.645 223.615 359.552 223.655C359.459 223.696 359.375 223.755 359.306 223.828Z" fill="black"></path><path opacity="0.1" d="M368.8 233.323L362.619 239.581C362.482 239.719 362.405 239.906 362.405 240.101C362.405 240.296 362.482 240.484 362.619 240.622L368.845 247.006C368.985 247.142 369.171 247.218 369.366 247.218C369.561 247.218 369.748 247.142 369.887 247.006L376.068 241.17C376.209 241.035 376.292 240.851 376.299 240.656C376.305 240.462 376.236 240.272 376.104 240.128L369.86 233.345C369.792 233.274 369.711 233.216 369.621 233.176C369.53 233.137 369.433 233.115 369.335 233.113C369.236 233.111 369.138 233.128 369.047 233.164C368.955 233.2 368.871 233.254 368.8 233.323Z" fill="black"></path><path opacity="0.1" d="M378.295 242.799L372.104 249.084C371.969 249.223 371.893 249.409 371.893 249.603C371.893 249.797 371.969 249.983 372.104 250.121L378.331 256.505C378.47 256.641 378.657 256.717 378.852 256.717C379.046 256.717 379.233 256.641 379.372 256.505L385.554 250.669C385.696 250.535 385.779 250.351 385.786 250.156C385.793 249.96 385.722 249.771 385.59 249.627L379.368 242.822C379.3 242.748 379.218 242.689 379.126 242.648C379.035 242.607 378.936 242.585 378.836 242.583C378.736 242.581 378.636 242.599 378.543 242.636C378.45 242.673 378.366 242.729 378.295 242.799Z" fill="black"></path><path opacity="0.1" d="M387.79 252.312L381.608 258.574C381.472 258.713 381.396 258.9 381.396 259.095C381.396 259.29 381.472 259.476 381.608 259.616L387.816 265.995C387.953 266.134 388.138 266.214 388.333 266.218C388.527 266.222 388.716 266.15 388.858 266.017L395.04 260.181C395.181 260.047 395.265 259.863 395.272 259.668C395.278 259.473 395.208 259.283 395.075 259.14L388.853 252.334C388.786 252.262 388.704 252.204 388.613 252.164C388.523 252.124 388.425 252.102 388.326 252.1C388.227 252.098 388.129 252.115 388.037 252.152C387.944 252.188 387.86 252.243 387.79 252.312Z" fill="black"></path><path opacity="0.1" d="M272.446 156.298L267.472 161.335C267.324 161.482 267.207 161.657 267.127 161.85C267.047 162.042 267.006 162.249 267.006 162.457C267.006 162.666 267.047 162.872 267.127 163.065C267.207 163.257 267.324 163.432 267.472 163.58L272.54 168.774C272.684 168.924 272.857 169.045 273.048 169.129C273.239 169.213 273.444 169.258 273.653 169.262C273.861 169.266 274.069 169.229 274.263 169.153C274.457 169.077 274.634 168.963 274.785 168.818L279.754 164.127C280.063 163.841 280.245 163.444 280.261 163.023C280.277 162.602 280.125 162.192 279.839 161.883L274.744 156.339C274.598 156.181 274.422 156.054 274.226 155.966C274.03 155.878 273.818 155.831 273.604 155.827C273.389 155.823 273.175 155.863 272.976 155.944C272.777 156.025 272.597 156.145 272.446 156.298Z" fill="black"></path><path opacity="0.1" d="M252.693 176.046L247.715 181.083C247.418 181.381 247.251 181.784 247.251 182.205C247.251 182.626 247.418 183.029 247.715 183.327L252.779 188.481C253.069 188.779 253.464 188.951 253.88 188.96C254.295 188.97 254.698 188.815 255.001 188.53L259.975 183.835C260.278 183.55 260.457 183.156 260.472 182.74C260.487 182.324 260.338 181.919 260.056 181.612L254.992 176.091C254.847 175.932 254.671 175.804 254.475 175.715C254.279 175.627 254.067 175.579 253.852 175.575C253.637 175.57 253.424 175.61 253.224 175.691C253.025 175.772 252.845 175.893 252.693 176.046Z" fill="black"></path><path opacity="0.1" d="M281.756 165.609L276.778 170.646C276.63 170.793 276.513 170.968 276.433 171.16C276.353 171.353 276.312 171.559 276.312 171.768C276.312 171.976 276.353 172.183 276.433 172.375C276.513 172.568 276.63 172.743 276.778 172.89L281.841 178.084C282.133 178.388 282.533 178.564 282.953 178.573C283.374 178.582 283.782 178.424 284.086 178.133L289.055 173.415C289.363 173.128 289.543 172.73 289.558 172.31C289.574 171.889 289.422 171.48 289.136 171.171L284.073 165.636C283.926 165.475 283.749 165.345 283.55 165.256C283.352 165.167 283.138 165.119 282.92 165.117C282.703 165.114 282.487 165.157 282.287 165.241C282.087 165.326 281.906 165.451 281.756 165.609Z" fill="black"></path><path opacity="0.1" d="M291.529 175.386L286.555 180.423C286.264 180.719 286.1 181.118 286.1 181.534C286.1 181.95 286.264 182.349 286.555 182.645L291.623 187.839C291.767 187.99 291.94 188.11 292.131 188.194C292.322 188.278 292.528 188.323 292.736 188.327C292.945 188.332 293.152 188.295 293.346 188.218C293.54 188.142 293.718 188.029 293.868 187.884L298.837 183.193C299.146 182.906 299.328 182.509 299.344 182.088C299.36 181.667 299.209 181.257 298.923 180.948L293.859 175.409C293.712 175.247 293.533 175.117 293.333 175.028C293.133 174.938 292.918 174.891 292.699 174.889C292.48 174.887 292.263 174.93 292.062 175.015C291.861 175.101 291.679 175.227 291.529 175.386Z" fill="black"></path><path opacity="0.1" d="M301.419 185.271L296.445 190.312C296.153 190.609 295.99 191.008 295.99 191.423C295.99 191.839 296.153 192.238 296.445 192.535L301.513 197.728C301.803 198.027 302.199 198.199 302.615 198.208C303.031 198.216 303.433 198.06 303.735 197.773L308.709 193.082C309.018 192.796 309.2 192.398 309.216 191.978C309.232 191.557 309.08 191.147 308.794 190.838L303.722 185.338C303.577 185.179 303.402 185.05 303.207 184.959C303.011 184.869 302.8 184.819 302.584 184.813C302.369 184.806 302.155 184.844 301.955 184.923C301.754 185.001 301.572 185.12 301.419 185.271Z" fill="black"></path><path opacity="0.1" d="M262.323 185.042L257.344 190.079C257.053 190.375 256.889 190.774 256.889 191.19C256.889 191.606 257.053 192.005 257.344 192.301L262.408 197.495C262.552 197.646 262.725 197.766 262.916 197.85C263.107 197.934 263.312 197.979 263.521 197.984C263.729 197.988 263.937 197.951 264.131 197.875C264.325 197.798 264.502 197.685 264.653 197.54L269.626 192.849C269.934 192.561 270.114 192.164 270.13 191.743C270.145 191.323 269.993 190.913 269.707 190.604L264.644 185.069C264.497 184.907 264.319 184.777 264.121 184.688C263.922 184.598 263.707 184.55 263.489 184.548C263.271 184.545 263.055 184.588 262.854 184.673C262.653 184.758 262.472 184.884 262.323 185.042Z" fill="black"></path><path opacity="0.1" d="M272.095 194.815L267.122 199.856C266.974 200.004 266.857 200.178 266.777 200.371C266.697 200.564 266.656 200.77 266.656 200.979C266.656 201.187 266.697 201.394 266.777 201.586C266.857 201.779 266.974 201.954 267.122 202.101L272.19 207.295C272.334 207.445 272.507 207.566 272.698 207.65C272.889 207.734 273.094 207.779 273.303 207.783C273.511 207.787 273.719 207.75 273.913 207.674C274.107 207.598 274.284 207.484 274.434 207.34L279.404 202.649C279.713 202.362 279.895 201.965 279.911 201.544C279.927 201.123 279.775 200.713 279.489 200.404L274.425 194.864C274.28 194.701 274.103 194.569 273.904 194.477C273.705 194.386 273.49 194.336 273.271 194.331C273.052 194.327 272.835 194.367 272.633 194.45C272.431 194.534 272.248 194.658 272.095 194.815Z" fill="black"></path><path opacity="0.1" d="M281.985 204.705L277.011 209.746C276.72 210.042 276.556 210.441 276.556 210.857C276.556 211.273 276.72 211.672 277.011 211.968L282.079 217.162C282.371 217.465 282.772 217.64 283.192 217.649C283.613 217.657 284.02 217.498 284.324 217.207L289.293 212.511C289.598 212.227 289.777 211.834 289.793 211.418C289.809 211.002 289.66 210.596 289.379 210.289L284.315 204.749C284.169 204.586 283.992 204.455 283.793 204.364C283.594 204.272 283.379 204.223 283.16 204.219C282.941 204.214 282.724 204.255 282.522 204.339C282.32 204.423 282.137 204.547 281.985 204.705Z" fill="black"></path><path opacity="0.1" d="M311.308 195.161L306.334 200.202C306.043 200.498 305.879 200.897 305.879 201.313C305.879 201.729 306.043 202.128 306.334 202.424L311.402 207.618C311.547 207.769 311.719 207.889 311.91 207.973C312.101 208.057 312.307 208.102 312.515 208.107C312.724 208.111 312.931 208.074 313.125 207.998C313.32 207.921 313.497 207.808 313.647 207.663L318.621 202.972C318.774 202.83 318.898 202.659 318.985 202.47C319.072 202.28 319.12 202.075 319.128 201.866C319.135 201.658 319.101 201.45 319.028 201.254C318.955 201.059 318.844 200.88 318.702 200.727L313.607 195.215C313.462 195.055 313.287 194.927 313.091 194.837C312.896 194.748 312.684 194.699 312.469 194.694C312.254 194.689 312.04 194.728 311.841 194.808C311.641 194.888 311.46 195.008 311.308 195.161Z" fill="black"></path><path opacity="0.1" d="M321.198 205.05L316.219 210.092C315.928 210.388 315.765 210.787 315.765 211.203C315.765 211.618 315.928 212.017 316.219 212.314L321.288 217.508C321.432 217.658 321.604 217.779 321.795 217.863C321.986 217.947 322.192 217.992 322.4 217.996C322.609 218 322.816 217.963 323.011 217.887C323.205 217.811 323.382 217.697 323.532 217.552L328.506 212.857C328.81 212.572 328.988 212.179 329.003 211.762C329.019 211.346 328.869 210.941 328.587 210.635L323.496 205.091C323.351 204.932 323.175 204.805 322.979 204.716C322.783 204.628 322.571 204.581 322.356 204.577C322.141 204.573 321.927 204.613 321.728 204.694C321.529 204.776 321.348 204.897 321.198 205.05Z" fill="black"></path><path opacity="0.1" d="M331.702 214.307L325.521 220.592C325.384 220.73 325.307 220.917 325.307 221.112C325.307 221.307 325.384 221.494 325.521 221.633L331.752 227.985C331.89 228.122 332.077 228.199 332.272 228.199C332.467 228.199 332.655 228.122 332.793 227.985L338.975 222.149C339.116 222.015 339.198 221.831 339.205 221.636C339.212 221.441 339.142 221.252 339.011 221.108L332.789 214.302C332.719 214.228 332.634 214.17 332.541 214.13C332.447 214.09 332.346 214.069 332.245 214.07C332.143 214.07 332.042 214.091 331.949 214.132C331.856 214.173 331.772 214.232 331.702 214.307Z" fill="black"></path><path opacity="0.1" d="M340.465 223.047L334.284 229.332C334.146 229.471 334.07 229.658 334.07 229.853C334.07 230.048 334.146 230.235 334.284 230.373L340.51 236.753C340.649 236.89 340.836 236.966 341.031 236.966C341.226 236.966 341.413 236.89 341.551 236.753L347.733 230.917C347.874 230.782 347.957 230.598 347.963 230.403C347.97 230.209 347.9 230.019 347.769 229.875L341.547 223.07C341.479 222.995 341.396 222.934 341.304 222.892C341.212 222.851 341.112 222.828 341.011 222.826C340.91 222.824 340.809 222.842 340.715 222.88C340.621 222.918 340.536 222.975 340.465 223.047Z" fill="black"></path><path opacity="0.1" d="M350.269 232.865L344.083 239.15C343.948 239.288 343.872 239.474 343.872 239.668C343.872 239.862 343.948 240.048 344.083 240.187L350.305 246.57C350.445 246.706 350.631 246.782 350.826 246.782C351.021 246.782 351.208 246.706 351.347 246.57L357.528 240.734C357.671 240.601 357.755 240.417 357.763 240.222C357.77 240.027 357.701 239.837 357.569 239.693L351.347 232.887C351.279 232.813 351.196 232.753 351.105 232.712C351.013 232.67 350.914 232.648 350.813 232.646C350.712 232.644 350.612 232.662 350.519 232.7C350.425 232.737 350.34 232.794 350.269 232.865Z" fill="black"></path><path opacity="0.1" d="M359.764 242.35L353.582 248.635C353.445 248.774 353.368 248.961 353.368 249.156C353.368 249.351 353.445 249.538 353.582 249.677L359.804 256.056C359.944 256.192 360.132 256.268 360.327 256.268C360.523 256.268 360.71 256.192 360.85 256.056L367.027 250.22C367.17 250.087 367.254 249.903 367.262 249.708C367.269 249.512 367.2 249.322 367.068 249.178L360.846 242.373C360.778 242.298 360.695 242.238 360.603 242.196C360.511 242.154 360.411 242.131 360.31 242.129C360.208 242.127 360.108 242.145 360.014 242.184C359.92 242.222 359.835 242.278 359.764 242.35Z" fill="black"></path><path opacity="0.1" d="M282.133 184.782L277.155 189.828C276.863 190.124 276.7 190.523 276.7 190.939C276.7 191.354 276.863 191.753 277.155 192.05L282.223 197.244C282.367 197.395 282.539 197.516 282.73 197.6C282.921 197.684 283.127 197.73 283.336 197.734C283.545 197.738 283.752 197.701 283.946 197.624C284.141 197.548 284.318 197.434 284.468 197.289L289.442 192.597C289.75 192.31 289.931 191.913 289.946 191.492C289.962 191.071 289.809 190.661 289.522 190.353L284.432 184.827C284.287 184.667 284.111 184.539 283.915 184.45C283.72 184.361 283.507 184.313 283.292 184.309C283.077 184.304 282.863 184.344 282.664 184.426C282.465 184.507 282.284 184.628 282.133 184.782Z" fill="black"></path><path opacity="0.1" d="M292.023 194.671L287.044 199.704C286.753 200 286.59 200.399 286.59 200.815C286.59 201.23 286.753 201.629 287.044 201.926L292.113 207.12C292.257 207.271 292.429 207.392 292.62 207.476C292.811 207.56 293.017 207.606 293.226 207.61C293.434 207.614 293.642 207.577 293.836 207.501C294.03 207.424 294.207 207.31 294.357 207.165L299.331 202.473C299.638 202.186 299.819 201.788 299.834 201.368C299.849 200.947 299.698 200.538 299.412 200.229L294.348 194.694C294.202 194.532 294.023 194.401 293.824 194.312C293.625 194.222 293.409 194.175 293.19 194.172C292.972 194.17 292.755 194.214 292.554 194.3C292.353 194.385 292.172 194.512 292.023 194.671Z" fill="black"></path><path opacity="0.1" d="M301.912 204.561L296.934 209.58C296.642 209.876 296.479 210.275 296.479 210.691C296.479 211.107 296.642 211.506 296.934 211.802L301.998 216.996C302.142 217.147 302.314 217.267 302.505 217.351C302.696 217.435 302.902 217.48 303.111 217.484C303.319 217.489 303.526 217.451 303.721 217.375C303.915 217.299 304.092 217.186 304.242 217.041L309.216 212.35C309.523 212.062 309.704 211.664 309.719 211.244C309.734 210.823 309.583 210.414 309.297 210.105L304.233 204.565C304.085 204.406 303.906 204.278 303.706 204.191C303.507 204.103 303.292 204.058 303.074 204.058C302.856 204.057 302.64 204.102 302.441 204.188C302.241 204.275 302.061 204.402 301.912 204.561Z" fill="black"></path><path opacity="0.1" d="M311.802 214.45L306.824 219.487C306.532 219.784 306.369 220.183 306.369 220.598C306.369 221.014 306.532 221.413 306.824 221.709L311.887 226.903C312.032 227.054 312.204 227.175 312.395 227.259C312.586 227.342 312.792 227.388 313 227.392C313.209 227.396 313.416 227.359 313.61 227.283C313.804 227.207 313.982 227.093 314.132 226.948L319.106 222.257C319.413 221.969 319.594 221.572 319.609 221.151C319.624 220.731 319.472 220.322 319.187 220.013L314.123 214.473C313.976 214.312 313.798 214.183 313.599 214.094C313.4 214.005 313.185 213.958 312.967 213.956C312.75 213.954 312.534 213.997 312.333 214.082C312.133 214.167 311.952 214.292 311.802 214.45Z" fill="black"></path><path opacity="0.1" d="M322.315 223.707L316.129 229.965C315.993 230.104 315.917 230.291 315.917 230.486C315.917 230.68 315.993 230.867 316.129 231.006L322.351 237.386C322.49 237.523 322.677 237.599 322.872 237.599C323.067 237.599 323.254 237.523 323.393 237.386L329.574 231.55C329.717 231.416 329.801 231.232 329.809 231.037C329.816 230.842 329.747 230.652 329.615 230.508L323.393 223.698C323.323 223.625 323.239 223.568 323.146 223.528C323.053 223.489 322.953 223.469 322.852 223.47C322.751 223.471 322.652 223.493 322.559 223.533C322.467 223.574 322.384 223.633 322.315 223.707Z" fill="black"></path><path opacity="0.1" d="M331.069 232.474L324.883 238.732C324.747 238.871 324.671 239.058 324.671 239.253C324.671 239.448 324.747 239.634 324.883 239.774L331.105 246.153C331.244 246.29 331.431 246.367 331.626 246.367C331.821 246.367 332.008 246.29 332.147 246.153L338.328 240.317C338.471 240.184 338.555 239.999 338.563 239.804C338.57 239.609 338.501 239.419 338.369 239.275L332.151 232.474C332.082 232.4 331.998 232.341 331.905 232.301C331.812 232.261 331.712 232.24 331.61 232.24C331.509 232.24 331.408 232.261 331.315 232.301C331.222 232.341 331.139 232.4 331.069 232.474Z" fill="black"></path><path opacity="0.1" d="M340.869 242.261L334.688 248.545C334.552 248.685 334.475 248.872 334.475 249.066C334.475 249.261 334.552 249.448 334.688 249.587L340.91 255.966C341.045 256.106 341.231 256.187 341.426 256.191C341.621 256.195 341.809 256.123 341.951 255.988L348.133 250.153C348.275 250.019 348.359 249.835 348.367 249.64C348.374 249.445 348.305 249.255 348.173 249.111L341.947 242.306C341.88 242.23 341.799 242.168 341.708 242.125C341.617 242.081 341.518 242.057 341.417 242.053C341.317 242.048 341.216 242.065 341.122 242.1C341.028 242.136 340.942 242.191 340.869 242.261Z" fill="black"></path><path opacity="0.1" d="M350.368 251.778L344.182 258.018C344.046 258.157 343.97 258.344 343.97 258.538C343.97 258.733 344.046 258.92 344.182 259.059L350.404 265.438C350.54 265.578 350.725 265.659 350.92 265.663C351.115 265.668 351.304 265.595 351.445 265.461L357.627 259.625C357.77 259.491 357.854 259.307 357.861 259.112C357.869 258.917 357.799 258.727 357.667 258.583L351.454 251.778C351.385 251.702 351.302 251.642 351.208 251.601C351.115 251.56 351.013 251.538 350.911 251.538C350.809 251.538 350.708 251.56 350.614 251.601C350.521 251.642 350.437 251.702 350.368 251.778Z" fill="black"></path><path opacity="0.1" d="M369.258 251.854L363.077 258.139C362.94 258.277 362.863 258.465 362.863 258.66C362.863 258.855 362.94 259.042 363.077 259.18L369.303 265.559C369.439 265.699 369.624 265.78 369.819 265.785C370.014 265.789 370.203 265.716 370.345 265.582L376.526 259.746C376.667 259.611 376.75 259.427 376.757 259.233C376.763 259.038 376.694 258.848 376.562 258.704L370.34 251.899C370.274 251.822 370.192 251.76 370.101 251.716C370.01 251.673 369.91 251.648 369.809 251.644C369.708 251.639 369.607 251.656 369.512 251.692C369.417 251.728 369.331 251.783 369.258 251.854Z" fill="black"></path><path opacity="0.1" d="M378.753 261.353L372.553 267.611C372.416 267.749 372.34 267.937 372.34 268.132C372.34 268.327 372.416 268.514 372.553 268.652L378.793 275.031C378.929 275.171 379.114 275.252 379.309 275.257C379.504 275.261 379.693 275.188 379.835 275.054L386.016 269.218C386.157 269.083 386.24 268.899 386.247 268.704C386.253 268.51 386.184 268.32 386.052 268.176L379.83 261.371C379.762 261.296 379.68 261.237 379.588 261.195C379.496 261.154 379.396 261.131 379.295 261.13C379.195 261.128 379.094 261.147 379.001 261.185C378.908 261.224 378.823 261.281 378.753 261.353Z" fill="black"></path><path opacity="0.1" d="M330.652 252.482L324.816 258.377C324.633 258.563 324.531 258.814 324.531 259.075C324.531 259.336 324.633 259.586 324.816 259.773L330.692 265.797C330.875 265.984 331.124 266.091 331.385 266.096C331.646 266.101 331.898 266.003 332.088 265.824L337.924 260.334C338.108 260.156 338.217 259.915 338.229 259.66C338.24 259.404 338.154 259.154 337.987 258.96L332.111 252.532C332.021 252.429 331.91 252.346 331.787 252.287C331.663 252.229 331.529 252.196 331.392 252.191C331.255 252.187 331.119 252.21 330.992 252.26C330.864 252.31 330.749 252.386 330.652 252.482Z" fill="black"></path><path opacity="0.1" d="M340.146 261.977L334.31 267.871C334.128 268.058 334.025 268.308 334.025 268.569C334.025 268.83 334.128 269.081 334.31 269.267L340.187 275.292C340.37 275.478 340.618 275.586 340.879 275.591C341.14 275.596 341.393 275.498 341.583 275.319L347.419 269.828C347.609 269.649 347.721 269.403 347.731 269.141C347.741 268.88 347.648 268.626 347.473 268.432L341.578 262.004C341.487 261.907 341.377 261.829 341.255 261.775C341.133 261.721 341.001 261.691 340.868 261.689C340.735 261.686 340.602 261.711 340.478 261.76C340.354 261.81 340.241 261.883 340.146 261.977Z" fill="black"></path><path opacity="0.1" d="M349.659 271.471L343.823 277.366C343.64 277.552 343.538 277.803 343.538 278.064C343.538 278.325 343.64 278.576 343.823 278.762L349.699 284.786C349.881 284.973 350.13 285.082 350.391 285.087C350.652 285.093 350.905 284.996 351.095 284.818L356.931 279.323C357.123 279.144 357.235 278.898 357.246 278.636C357.256 278.375 357.162 278.12 356.985 277.927L351.109 271.503C351.018 271.402 350.908 271.32 350.784 271.263C350.661 271.206 350.527 271.175 350.391 271.172C350.255 271.169 350.12 271.194 349.994 271.246C349.868 271.297 349.754 271.374 349.659 271.471Z" fill="black"></path><path opacity="0.1" d="M359.324 280.778L353.143 287.04C353.007 287.179 352.93 287.366 352.93 287.561C352.93 287.755 353.007 287.942 353.143 288.081L359.369 294.46C359.508 294.597 359.695 294.674 359.89 294.674C360.085 294.674 360.272 294.597 360.41 294.46L366.592 288.625C366.734 288.491 366.817 288.306 366.824 288.111C366.831 287.916 366.76 287.726 366.628 287.583L360.406 280.778C360.336 280.704 360.252 280.646 360.159 280.606C360.066 280.566 359.966 280.545 359.865 280.545C359.764 280.545 359.664 280.566 359.571 280.606C359.478 280.646 359.394 280.704 359.324 280.778Z" fill="black"></path><path opacity="0.1" d="M262.659 165.559L257.353 170.973C257.206 171.12 257.088 171.295 257.008 171.488C256.928 171.681 256.887 171.887 256.887 172.096C256.887 172.304 256.928 172.51 257.008 172.703C257.088 172.896 257.206 173.071 257.353 173.218L272.167 187.884C272.46 188.172 272.853 188.337 273.264 188.342C273.675 188.347 274.072 188.192 274.372 187.911L279.902 182.708C280.058 182.562 280.182 182.386 280.268 182.191C280.354 181.996 280.4 181.785 280.403 181.572C280.405 181.359 280.365 181.147 280.285 180.95C280.204 180.752 280.085 180.573 279.934 180.423L264.895 165.546C264.596 165.252 264.193 165.089 263.774 165.091C263.355 165.094 262.955 165.262 262.659 165.559Z" fill="black"></path><path opacity="0.1" d="M359.629 261.331L353.142 267.939C353.006 268.079 352.929 268.268 352.929 268.464C352.929 268.66 353.006 268.848 353.142 268.989L369.128 284.813C369.266 284.948 369.452 285.023 369.644 285.023C369.837 285.023 370.022 284.948 370.161 284.813L376.921 278.452C376.993 278.383 377.051 278.3 377.09 278.208C377.129 278.116 377.149 278.018 377.149 277.918C377.149 277.818 377.129 277.719 377.09 277.628C377.051 277.536 376.993 277.453 376.921 277.384L360.657 261.295C360.514 261.167 360.327 261.1 360.136 261.107C359.945 261.113 359.763 261.194 359.629 261.331Z" fill="black"></path><path opacity="0.1" d="M292.198 213.988L286.007 220.12C285.938 220.189 285.883 220.27 285.846 220.36C285.809 220.45 285.789 220.546 285.789 220.643C285.789 220.741 285.809 220.837 285.846 220.927C285.883 221.016 285.938 221.098 286.007 221.166L320.479 256.5C320.619 256.636 320.806 256.712 321 256.712C321.195 256.712 321.382 256.636 321.521 256.5L328.255 250.148C328.326 250.079 328.383 249.996 328.421 249.905C328.46 249.814 328.48 249.715 328.48 249.616C328.48 249.517 328.46 249.419 328.421 249.327C328.383 249.236 328.326 249.153 328.255 249.084L293.239 213.975C293.098 213.84 292.91 213.767 292.716 213.769C292.521 213.772 292.335 213.85 292.198 213.988Z" fill="black"></path></g><path d="M281.482 146.171L276.486 151.221C276.195 151.517 276.031 151.916 276.031 152.332C276.031 152.748 276.195 153.147 276.486 153.443L281.55 158.637C281.842 158.94 282.242 159.115 282.663 159.124C283.083 159.132 283.49 158.973 283.794 158.682L288.768 153.986C289.071 153.701 289.249 153.308 289.264 152.892C289.279 152.476 289.13 152.071 288.849 151.764L283.785 146.225C283.641 146.064 283.465 145.935 283.269 145.846C283.073 145.756 282.861 145.707 282.645 145.702C282.43 145.696 282.215 145.736 282.015 145.816C281.815 145.897 281.634 146.018 281.482 146.171Z" fill="#464A5F"></path><path d="M290.793 155.486L285.814 160.522C285.523 160.819 285.36 161.218 285.36 161.634C285.36 162.049 285.523 162.448 285.814 162.745L290.878 167.938C291.022 168.089 291.195 168.21 291.386 168.294C291.577 168.377 291.783 168.423 291.991 168.427C292.2 168.431 292.407 168.394 292.601 168.318C292.795 168.242 292.972 168.128 293.123 167.983L298.097 163.292C298.404 163.005 298.585 162.607 298.6 162.187C298.615 161.766 298.463 161.357 298.177 161.048L293.096 155.526C292.95 155.367 292.774 155.239 292.578 155.15C292.381 155.061 292.169 155.014 291.953 155.01C291.737 155.006 291.523 155.046 291.324 155.128C291.124 155.21 290.944 155.332 290.793 155.486Z" fill="#464A5F"></path><path d="M300.57 165.259L295.592 170.3C295.301 170.597 295.139 170.996 295.139 171.411C295.139 171.826 295.301 172.225 295.592 172.522L300.651 177.707C300.943 178.01 301.343 178.185 301.764 178.194C302.185 178.202 302.592 178.043 302.895 177.752L307.869 173.056C308.022 172.914 308.146 172.744 308.233 172.554C308.32 172.364 308.369 172.159 308.376 171.951C308.384 171.742 308.35 171.534 308.277 171.339C308.204 171.143 308.093 170.964 307.95 170.812L302.886 165.272C302.739 165.112 302.561 164.985 302.362 164.897C302.163 164.809 301.948 164.763 301.731 164.762C301.514 164.761 301.299 164.804 301.099 164.89C300.899 164.975 300.719 165.101 300.57 165.259Z" fill="#464A5F"></path><path d="M310.455 175.148L305.481 180.185C305.185 180.483 305.019 180.887 305.019 181.307C305.019 181.728 305.185 182.131 305.481 182.429L310.549 187.623C310.841 187.927 311.242 188.102 311.662 188.11C312.083 188.118 312.49 187.96 312.794 187.668L317.763 182.973C318.068 182.688 318.247 182.295 318.263 181.879C318.279 181.463 318.13 181.057 317.849 180.751L312.758 175.193C312.613 175.034 312.437 174.906 312.24 174.817C312.044 174.729 311.832 174.681 311.616 174.677C311.401 174.672 311.187 174.712 310.987 174.793C310.788 174.874 310.607 174.995 310.455 175.148Z" fill="#464A5F"></path><path d="M320.345 185.038L315.371 190.075C315.074 190.372 314.907 190.776 314.907 191.197C314.907 191.618 315.074 192.021 315.371 192.319L320.439 197.509C320.73 197.812 321.13 197.988 321.551 197.997C321.972 198.007 322.379 197.849 322.684 197.558L327.653 192.862C327.807 192.721 327.931 192.551 328.019 192.361C328.107 192.172 328.156 191.967 328.164 191.758C328.172 191.549 328.138 191.341 328.065 191.145C327.992 190.949 327.881 190.77 327.738 190.618L322.675 185.078C322.529 184.915 322.351 184.784 322.152 184.693C321.953 184.602 321.737 184.553 321.518 184.55C321.3 184.546 321.083 184.587 320.881 184.671C320.679 184.755 320.496 184.88 320.345 185.038Z" fill="#464A5F"></path><path d="M330.858 194.317L324.677 200.557C324.541 200.695 324.465 200.881 324.465 201.075C324.465 201.269 324.541 201.455 324.677 201.594L330.903 207.977C331.039 208.116 331.225 208.196 331.419 208.201C331.614 208.205 331.803 208.133 331.945 208L338.126 202.164C338.268 202.03 338.352 201.845 338.358 201.65C338.365 201.455 338.295 201.266 338.162 201.122L331.936 194.317C331.866 194.244 331.783 194.186 331.69 194.146C331.597 194.107 331.498 194.086 331.397 194.086C331.296 194.086 331.197 194.107 331.104 194.146C331.011 194.186 330.928 194.244 330.858 194.317Z" fill="#464A5F"></path><path d="M340.748 204.193L334.566 210.455C334.431 210.594 334.355 210.78 334.355 210.974C334.355 211.168 334.431 211.354 334.566 211.492L340.793 217.876C340.932 218.012 341.119 218.088 341.314 218.088C341.508 218.088 341.695 218.012 341.834 217.876L348.016 212.04C348.158 211.906 348.241 211.722 348.248 211.526C348.255 211.331 348.184 211.142 348.052 210.998L341.825 204.193C341.756 204.12 341.672 204.062 341.58 204.023C341.487 203.983 341.387 203.963 341.287 203.963C341.186 203.963 341.086 203.983 340.994 204.023C340.901 204.062 340.818 204.12 340.748 204.193Z" fill="#464A5F"></path><path d="M349.502 212.938L343.32 219.2C343.184 219.338 343.108 219.525 343.108 219.719C343.108 219.912 343.184 220.099 343.32 220.237L349.542 226.639C349.681 226.775 349.868 226.851 350.063 226.851C350.257 226.851 350.444 226.775 350.584 226.639L356.765 220.803C356.907 220.669 356.99 220.484 356.997 220.289C357.004 220.094 356.933 219.904 356.801 219.761L350.579 212.956C350.511 212.882 350.428 212.822 350.336 212.781C350.244 212.74 350.145 212.718 350.044 212.716C349.944 212.715 349.844 212.733 349.75 212.771C349.657 212.809 349.572 212.866 349.502 212.938Z" fill="#464A5F"></path><path d="M359.306 222.742L353.124 229C352.987 229.138 352.911 229.326 352.911 229.521C352.911 229.715 352.987 229.903 353.124 230.041L359.351 236.42C359.487 236.56 359.672 236.641 359.867 236.646C360.062 236.65 360.251 236.577 360.392 236.443L366.574 230.607C366.715 230.472 366.797 230.288 366.804 230.093C366.811 229.899 366.741 229.709 366.61 229.565L360.388 222.755C360.319 222.681 360.236 222.621 360.143 222.58C360.051 222.539 359.951 222.517 359.85 222.516C359.749 222.515 359.648 222.534 359.555 222.573C359.461 222.612 359.377 222.669 359.306 222.742Z" fill="#464A5F"></path><path d="M368.8 232.236L362.619 238.494C362.482 238.633 362.405 238.82 362.405 239.015C362.405 239.21 362.482 239.397 362.619 239.536L368.841 245.942C368.98 246.078 369.167 246.154 369.362 246.154C369.556 246.154 369.743 246.078 369.882 245.942L376.064 240.106C376.205 239.971 376.287 239.787 376.294 239.593C376.301 239.398 376.231 239.208 376.1 239.064L369.86 232.259C369.792 232.187 369.711 232.13 369.621 232.09C369.53 232.05 369.433 232.029 369.335 232.027C369.236 232.024 369.138 232.042 369.047 232.078C368.955 232.114 368.871 232.168 368.8 232.236Z" fill="#464A5F"></path><path d="M378.295 241.731L372.113 248.016C371.978 248.154 371.902 248.34 371.902 248.534C371.902 248.728 371.978 248.914 372.113 249.053L378.34 255.436C378.479 255.572 378.666 255.648 378.861 255.648C379.055 255.648 379.242 255.572 379.381 255.436L385.563 249.6C385.705 249.467 385.788 249.282 385.795 249.087C385.802 248.892 385.731 248.702 385.599 248.559L379.377 241.753C379.309 241.678 379.226 241.618 379.134 241.576C379.042 241.534 378.942 241.512 378.841 241.509C378.74 241.507 378.639 241.526 378.545 241.564C378.451 241.602 378.366 241.659 378.295 241.731Z" fill="#464A5F"></path><path d="M387.79 251.226L381.608 257.51C381.472 257.65 381.396 257.836 381.396 258.031C381.396 258.226 381.472 258.413 381.608 258.552L387.816 264.908C387.956 265.044 388.143 265.121 388.337 265.121C388.532 265.121 388.719 265.044 388.858 264.908L395.039 259.073C395.181 258.939 395.265 258.754 395.272 258.559C395.278 258.364 395.208 258.174 395.075 258.031L388.853 251.226C388.784 251.155 388.701 251.099 388.61 251.06C388.519 251.022 388.421 251.002 388.321 251.002C388.222 251.002 388.124 251.022 388.033 251.06C387.942 251.099 387.859 251.155 387.79 251.226Z" fill="#464A5F"></path><path d="M272.446 155.212L267.472 160.249C267.18 160.545 267.017 160.944 267.017 161.36C267.017 161.775 267.18 162.174 267.472 162.471L272.54 167.665C272.684 167.815 272.857 167.936 273.048 168.02C273.239 168.104 273.444 168.149 273.653 168.153C273.861 168.157 274.069 168.12 274.263 168.044C274.457 167.968 274.634 167.854 274.785 167.71L279.754 163.018C280.063 162.732 280.245 162.335 280.261 161.914C280.277 161.493 280.125 161.083 279.839 160.774L274.744 155.261C274.599 155.103 274.423 154.975 274.228 154.886C274.032 154.798 273.82 154.749 273.605 154.745C273.391 154.74 273.177 154.779 272.978 154.859C272.778 154.94 272.597 155.06 272.446 155.212Z" fill="#464A5F"></path><path d="M252.693 174.96L247.715 179.996C247.418 180.294 247.251 180.698 247.251 181.119C247.251 181.539 247.418 181.943 247.715 182.241L252.783 187.43C253.073 187.728 253.469 187.901 253.884 187.91C254.3 187.919 254.703 187.765 255.005 187.48L259.979 182.784C260.287 182.497 260.469 182.099 260.484 181.679C260.499 181.258 260.347 180.848 260.06 180.54L254.992 175.013C254.848 174.853 254.673 174.724 254.477 174.635C254.281 174.545 254.07 174.496 253.854 174.491C253.639 174.486 253.425 174.525 253.225 174.605C253.026 174.686 252.845 174.806 252.693 174.96Z" fill="#464A5F"></path><path d="M281.756 164.522L276.778 169.559C276.486 169.856 276.323 170.255 276.323 170.67C276.323 171.086 276.486 171.485 276.778 171.781L281.841 176.975C281.986 177.126 282.158 177.247 282.349 177.33C282.54 177.414 282.746 177.46 282.954 177.464C283.163 177.468 283.37 177.431 283.564 177.355C283.759 177.279 283.936 177.165 284.086 177.02L289.056 172.32C289.363 172.032 289.543 171.635 289.559 171.214C289.574 170.794 289.422 170.384 289.136 170.075L284.073 164.54C283.926 164.38 283.748 164.251 283.549 164.163C283.35 164.074 283.136 164.028 282.918 164.026C282.701 164.024 282.485 164.068 282.285 164.153C282.086 164.238 281.905 164.364 281.756 164.522Z" fill="#464A5F"></path><path d="M291.529 174.295L286.555 179.337C286.264 179.633 286.1 180.032 286.1 180.448C286.1 180.863 286.264 181.262 286.555 181.559L291.623 186.753C291.768 186.903 291.94 187.024 292.131 187.108C292.322 187.192 292.528 187.237 292.736 187.241C292.945 187.245 293.152 187.208 293.346 187.132C293.54 187.056 293.718 186.942 293.868 186.797L298.837 182.106C299.146 181.82 299.328 181.423 299.344 181.002C299.36 180.581 299.209 180.171 298.923 179.862L293.832 174.34C293.686 174.182 293.51 174.054 293.314 173.966C293.117 173.878 292.905 173.83 292.69 173.826C292.475 173.821 292.261 173.861 292.061 173.942C291.862 174.022 291.681 174.143 291.529 174.295Z" fill="#464A5F"></path><path d="M301.419 184.185L296.445 189.226C296.153 189.522 295.99 189.921 295.99 190.337C295.99 190.753 296.153 191.152 296.445 191.448L301.513 196.642C301.803 196.94 302.199 197.111 302.615 197.119C303.03 197.128 303.433 196.973 303.735 196.687L308.709 191.996C309.018 191.709 309.2 191.312 309.216 190.891C309.232 190.47 309.08 190.06 308.794 189.751L303.731 184.212C303.584 184.053 303.406 183.925 303.208 183.837C303.011 183.749 302.797 183.702 302.58 183.7C302.364 183.697 302.149 183.739 301.949 183.822C301.75 183.906 301.569 184.029 301.419 184.185Z" fill="#464A5F"></path><path d="M262.323 183.956L257.344 188.993C257.053 189.289 256.889 189.688 256.889 190.104C256.889 190.519 257.053 190.918 257.344 191.215L262.408 196.409C262.552 196.559 262.725 196.68 262.916 196.764C263.107 196.848 263.312 196.893 263.521 196.897C263.729 196.901 263.937 196.864 264.131 196.788C264.325 196.712 264.502 196.598 264.653 196.454L269.626 191.762C269.934 191.475 270.114 191.077 270.13 190.657C270.145 190.236 269.993 189.827 269.707 189.518L264.621 183.992C264.476 183.833 264.3 183.705 264.103 183.617C263.907 183.529 263.695 183.481 263.48 183.478C263.264 183.475 263.051 183.515 262.852 183.598C262.653 183.68 262.473 183.802 262.323 183.956Z" fill="#464A5F"></path><path d="M272.096 193.729L267.122 198.77C266.83 199.066 266.667 199.465 266.667 199.881C266.667 200.297 266.83 200.696 267.122 200.992L272.19 206.186C272.482 206.489 272.882 206.664 273.303 206.673C273.724 206.681 274.131 206.522 274.434 206.231L279.404 201.54C279.713 201.253 279.895 200.856 279.911 200.435C279.927 200.014 279.775 199.604 279.489 199.295L274.425 193.756C274.278 193.594 274.1 193.464 273.9 193.374C273.701 193.284 273.485 193.236 273.266 193.234C273.048 193.231 272.831 193.274 272.629 193.359C272.428 193.444 272.246 193.57 272.096 193.729Z" fill="#464A5F"></path><path d="M281.985 203.618L277.011 208.682C276.72 208.978 276.556 209.377 276.556 209.793C276.556 210.209 276.72 210.608 277.011 210.904L282.079 216.098C282.371 216.401 282.772 216.576 283.192 216.585C283.613 216.593 284.02 216.434 284.324 216.143L289.293 211.447C289.598 211.163 289.777 210.77 289.793 210.354C289.809 209.938 289.66 209.532 289.379 209.225L284.315 203.686C284.171 203.521 283.994 203.388 283.796 203.294C283.599 203.201 283.383 203.15 283.165 203.143C282.946 203.137 282.728 203.176 282.525 203.258C282.322 203.339 282.138 203.462 281.985 203.618Z" fill="#464A5F"></path><path d="M311.308 194.074L306.334 199.116C306.043 199.412 305.879 199.811 305.879 200.227C305.879 200.642 306.043 201.041 306.334 201.338L311.402 206.532C311.547 206.682 311.719 206.803 311.91 206.887C312.101 206.971 312.307 207.016 312.515 207.02C312.724 207.024 312.931 206.987 313.125 206.911C313.32 206.835 313.497 206.721 313.647 206.577L318.621 201.881C318.775 201.739 318.899 201.569 318.986 201.379C319.073 201.189 319.122 200.984 319.13 200.776C319.137 200.567 319.103 200.359 319.03 200.163C318.956 199.968 318.845 199.789 318.702 199.636L313.638 194.097C313.491 193.934 313.312 193.804 313.113 193.714C312.913 193.625 312.697 193.577 312.478 193.575C312.259 193.573 312.042 193.616 311.841 193.702C311.639 193.788 311.458 193.915 311.308 194.074Z" fill="#464A5F"></path><path d="M321.198 203.964L316.219 209.005C315.928 209.302 315.764 209.701 315.764 210.116C315.764 210.532 315.928 210.931 316.219 211.227L321.287 216.421C321.432 216.572 321.604 216.693 321.795 216.776C321.986 216.86 322.192 216.906 322.4 216.91C322.609 216.914 322.816 216.877 323.01 216.801C323.205 216.725 323.382 216.611 323.532 216.466L328.506 211.77C328.81 211.485 328.988 211.092 329.003 210.676C329.019 210.26 328.869 209.855 328.587 209.548L323.523 204.009C323.378 203.846 323.2 203.714 323.002 203.623C322.804 203.532 322.589 203.482 322.37 203.478C322.152 203.474 321.935 203.515 321.733 203.599C321.531 203.682 321.349 203.807 321.198 203.964Z" fill="#464A5F"></path><path d="M331.702 213.22L325.521 219.483C325.384 219.621 325.307 219.809 325.307 220.004C325.307 220.199 325.384 220.386 325.521 220.524L331.747 226.903C331.886 227.04 332.073 227.117 332.268 227.117C332.463 227.117 332.65 227.04 332.789 226.903L338.97 221.068C339.111 220.933 339.194 220.749 339.2 220.554C339.207 220.359 339.137 220.17 339.006 220.026L332.784 213.22C332.714 213.147 332.631 213.088 332.538 213.048C332.445 213.008 332.344 212.988 332.243 212.988C332.142 212.988 332.042 213.008 331.949 213.048C331.856 213.088 331.772 213.147 331.702 213.22Z" fill="#464A5F"></path><path d="M340.465 221.974L334.284 228.237C334.146 228.375 334.07 228.562 334.07 228.757C334.07 228.952 334.146 229.139 334.284 229.278L340.51 235.657C340.649 235.794 340.836 235.871 341.031 235.871C341.226 235.871 341.413 235.794 341.551 235.657L347.733 229.821C347.874 229.687 347.957 229.503 347.963 229.308C347.97 229.113 347.9 228.924 347.769 228.78L341.547 221.974C341.477 221.901 341.393 221.842 341.3 221.802C341.207 221.762 341.107 221.742 341.006 221.742C340.905 221.742 340.805 221.762 340.712 221.802C340.619 221.842 340.535 221.901 340.465 221.974Z" fill="#464A5F"></path><path d="M350.269 231.779L344.083 238.041C343.948 238.179 343.872 238.366 343.872 238.559C343.872 238.753 343.948 238.939 344.083 239.078L350.305 245.461C350.445 245.597 350.631 245.674 350.826 245.674C351.021 245.674 351.208 245.597 351.347 245.461L357.528 239.626C357.671 239.492 357.755 239.308 357.763 239.113C357.77 238.918 357.701 238.728 357.569 238.584L351.347 231.801C351.279 231.727 351.196 231.667 351.105 231.626C351.013 231.584 350.914 231.562 350.813 231.559C350.712 231.557 350.612 231.576 350.519 231.613C350.425 231.651 350.34 231.707 350.269 231.779Z" fill="#464A5F"></path><path d="M359.764 241.273L353.582 247.535C353.445 247.674 353.368 247.861 353.368 248.056C353.368 248.251 353.445 248.438 353.582 248.577L359.804 254.956C359.944 255.092 360.132 255.169 360.327 255.169C360.523 255.169 360.71 255.092 360.85 254.956L367.027 249.12C367.17 248.987 367.254 248.803 367.262 248.608C367.269 248.413 367.2 248.223 367.068 248.079L360.846 241.273C360.776 241.2 360.692 241.141 360.599 241.101C360.506 241.061 360.406 241.04 360.305 241.04C360.204 241.04 360.103 241.061 360.01 241.101C359.917 241.141 359.834 241.2 359.764 241.273Z" fill="#464A5F"></path><path d="M282.133 183.695L277.155 188.732C276.863 189.029 276.7 189.428 276.7 189.843C276.7 190.259 276.863 190.658 277.155 190.954L282.223 196.148C282.367 196.299 282.539 196.421 282.73 196.505C282.921 196.589 283.127 196.634 283.336 196.639C283.545 196.643 283.752 196.606 283.946 196.529C284.141 196.453 284.318 196.339 284.468 196.193L289.442 191.502C289.75 191.215 289.931 190.817 289.946 190.396C289.962 189.976 289.809 189.566 289.522 189.258L284.432 183.74C284.287 183.581 284.111 183.453 283.915 183.364C283.719 183.274 283.507 183.226 283.292 183.222C283.077 183.218 282.863 183.258 282.664 183.339C282.465 183.421 282.284 183.542 282.133 183.695Z" fill="#464A5F"></path><path d="M292.023 193.585L287.044 198.622C286.897 198.769 286.78 198.944 286.7 199.137C286.62 199.329 286.578 199.536 286.578 199.744C286.578 199.953 286.62 200.159 286.7 200.352C286.78 200.544 286.897 200.719 287.044 200.866L292.113 206.06C292.257 206.211 292.429 206.333 292.62 206.417C292.811 206.501 293.017 206.546 293.226 206.551C293.434 206.555 293.642 206.518 293.836 206.441C294.03 206.365 294.207 206.251 294.357 206.105L299.331 201.414C299.638 201.126 299.819 200.729 299.834 200.308C299.849 199.888 299.698 199.478 299.412 199.169L294.348 193.634C294.204 193.47 294.027 193.338 293.828 193.246C293.63 193.154 293.415 193.104 293.196 193.099C292.978 193.095 292.761 193.136 292.559 193.219C292.357 193.303 292.174 193.427 292.023 193.585Z" fill="#464A5F"></path><path d="M301.912 203.475L296.934 208.511C296.642 208.808 296.479 209.207 296.479 209.622C296.479 210.038 296.642 210.437 296.934 210.734L301.998 215.927C302.142 216.078 302.314 216.199 302.505 216.283C302.696 216.366 302.902 216.412 303.111 216.416C303.319 216.42 303.526 216.383 303.721 216.307C303.915 216.231 304.092 216.117 304.242 215.972L309.216 211.281C309.523 210.994 309.704 210.596 309.719 210.176C309.734 209.755 309.583 209.346 309.297 209.037L304.233 203.497C304.086 203.336 303.908 203.207 303.709 203.118C303.51 203.029 303.295 202.982 303.078 202.98C302.86 202.978 302.644 203.021 302.444 203.106C302.243 203.191 302.062 203.317 301.912 203.475Z" fill="#464A5F"></path><path d="M311.802 213.36L306.824 218.401C306.676 218.548 306.559 218.723 306.479 218.916C306.399 219.108 306.358 219.315 306.358 219.523C306.358 219.732 306.399 219.938 306.479 220.131C306.559 220.323 306.676 220.498 306.824 220.646L311.887 225.839C312.032 225.99 312.204 226.111 312.395 226.195C312.586 226.278 312.792 226.324 313 226.328C313.209 226.332 313.416 226.295 313.61 226.219C313.804 226.143 313.982 226.029 314.132 225.884L319.106 221.193C319.413 220.906 319.594 220.508 319.609 220.088C319.624 219.667 319.472 219.258 319.187 218.949L314.123 213.409C313.978 213.247 313.801 213.116 313.603 213.026C313.405 212.935 313.191 212.885 312.973 212.881C312.756 212.876 312.539 212.916 312.338 212.999C312.136 213.081 311.954 213.204 311.802 213.36Z" fill="#464A5F"></path><path d="M322.316 222.621L316.129 228.883C315.993 229.022 315.917 229.209 315.917 229.404C315.917 229.598 315.993 229.785 316.129 229.925L322.351 236.304C322.487 236.444 322.673 236.525 322.868 236.529C323.063 236.533 323.251 236.46 323.393 236.326L329.574 230.49C329.717 230.356 329.802 230.171 329.809 229.975C329.817 229.78 329.747 229.589 329.615 229.444L323.393 222.639C323.325 222.564 323.242 222.504 323.15 222.463C323.058 222.421 322.959 222.399 322.858 222.397C322.757 222.396 322.657 222.415 322.564 222.453C322.47 222.491 322.386 222.548 322.316 222.621Z" fill="#464A5F"></path><path d="M331.069 231.375L324.883 237.632C324.747 237.772 324.671 237.959 324.671 238.153C324.671 238.348 324.747 238.535 324.883 238.674L331.105 245.044C331.241 245.184 331.426 245.265 331.621 245.269C331.816 245.273 332.005 245.201 332.147 245.066L338.328 239.231C338.471 239.097 338.555 238.912 338.563 238.716C338.571 238.52 338.501 238.329 338.369 238.185L332.151 231.393C332.083 231.317 332 231.257 331.908 231.215C331.816 231.173 331.716 231.15 331.614 231.149C331.513 231.147 331.412 231.166 331.318 231.205C331.225 231.244 331.14 231.302 331.069 231.375Z" fill="#464A5F"></path><path d="M340.869 241.174L334.688 247.459C334.552 247.598 334.475 247.785 334.475 247.98C334.475 248.174 334.552 248.361 334.688 248.501L340.909 254.88C341.048 255.017 341.235 255.094 341.43 255.094C341.625 255.094 341.812 255.017 341.951 254.88L348.132 249.044C348.275 248.91 348.359 248.726 348.367 248.531C348.374 248.336 348.305 248.146 348.173 248.002L341.946 241.197C341.878 241.123 341.796 241.063 341.704 241.021C341.613 240.98 341.513 240.957 341.413 240.955C341.312 240.953 341.212 240.971 341.118 241.009C341.025 241.047 340.94 241.103 340.869 241.174Z" fill="#464A5F"></path><path d="M350.368 250.673L344.182 256.931C344.046 257.07 343.97 257.257 343.97 257.452C343.97 257.647 344.046 257.833 344.182 257.973L350.404 264.347C350.543 264.484 350.73 264.561 350.925 264.561C351.12 264.561 351.307 264.484 351.445 264.347L357.627 258.511C357.77 258.378 357.854 258.194 357.861 257.999C357.869 257.804 357.799 257.614 357.667 257.47L351.454 250.691C351.387 250.615 351.304 250.553 351.211 250.51C351.118 250.468 351.017 250.445 350.915 250.443C350.813 250.441 350.712 250.461 350.617 250.501C350.523 250.54 350.438 250.599 350.368 250.673Z" fill="#464A5F"></path><path d="M369.258 250.768L363.077 257.052C362.94 257.191 362.863 257.378 362.863 257.573C362.863 257.768 362.94 257.955 363.077 258.094L369.303 264.473C369.442 264.61 369.629 264.687 369.824 264.687C370.019 264.687 370.206 264.61 370.345 264.473L376.526 258.637C376.667 258.503 376.75 258.318 376.757 258.124C376.763 257.929 376.694 257.739 376.562 257.596L370.336 250.79C370.268 250.716 370.185 250.656 370.094 250.615C370.002 250.573 369.903 250.551 369.802 250.548C369.701 250.546 369.601 250.565 369.508 250.602C369.414 250.64 369.33 250.696 369.258 250.768Z" fill="#464A5F"></path><path d="M378.753 260.262L372.571 266.547C372.434 266.686 372.357 266.873 372.357 267.068C372.357 267.263 372.434 267.45 372.571 267.588L378.798 273.967C378.936 274.105 379.124 274.181 379.318 274.181C379.513 274.181 379.701 274.105 379.839 273.967L386.021 268.132C386.162 267.997 386.244 267.813 386.251 267.618C386.258 267.424 386.188 267.234 386.057 267.09L379.83 260.307C379.764 260.231 379.683 260.17 379.592 260.126C379.501 260.083 379.402 260.058 379.301 260.054C379.2 260.05 379.1 260.066 379.006 260.102C378.911 260.138 378.825 260.192 378.753 260.262Z" fill="#464A5F"></path><path d="M330.652 251.396L324.816 257.29C324.633 257.477 324.531 257.727 324.531 257.988C324.531 258.249 324.633 258.5 324.816 258.686L330.692 264.711C330.875 264.897 331.124 265.005 331.385 265.01C331.646 265.015 331.898 264.917 332.088 264.738L337.924 259.248C338.113 259.068 338.225 258.821 338.235 258.56C338.245 258.3 338.153 258.045 337.978 257.852L332.102 251.423C332.01 251.323 331.899 251.243 331.775 251.187C331.652 251.131 331.518 251.101 331.383 251.099C331.247 251.096 331.112 251.121 330.987 251.172C330.861 251.224 330.747 251.3 330.652 251.396Z" fill="#464A5F"></path><path d="M340.146 260.891L334.311 266.785C334.128 266.971 334.025 267.222 334.025 267.483C334.025 267.744 334.128 267.995 334.311 268.181L340.2 274.223C340.386 274.401 340.633 274.5 340.889 274.5C341.146 274.5 341.393 274.401 341.578 274.223L347.414 268.733C347.605 268.554 347.717 268.307 347.727 268.046C347.737 267.785 347.644 267.53 347.468 267.337L341.578 260.918C341.487 260.82 341.377 260.742 341.255 260.688C341.133 260.634 341.002 260.605 340.868 260.603C340.735 260.6 340.602 260.624 340.478 260.674C340.354 260.723 340.241 260.797 340.146 260.891Z" fill="#464A5F"></path><path d="M349.659 270.385L343.823 276.279C343.64 276.466 343.538 276.716 343.538 276.977C343.538 277.239 343.64 277.489 343.823 277.676L349.699 283.7C349.881 283.888 350.13 283.996 350.392 284.001C350.653 284.006 350.906 283.907 351.095 283.727L356.931 278.237C357.122 278.058 357.235 277.811 357.246 277.55C357.256 277.288 357.162 277.033 356.985 276.841L351.109 270.412C351.017 270.312 350.907 270.231 350.783 270.175C350.659 270.119 350.525 270.088 350.39 270.086C350.254 270.083 350.119 270.108 349.993 270.16C349.868 270.211 349.754 270.288 349.659 270.385Z" fill="#464A5F"></path><path d="M359.324 279.691L353.143 285.976C353.007 286.115 352.93 286.302 352.93 286.497C352.93 286.691 353.007 286.878 353.143 287.017L359.369 293.396C359.505 293.535 359.69 293.616 359.885 293.62C360.08 293.624 360.268 293.552 360.41 293.419L366.592 287.583C366.734 287.449 366.817 287.265 366.824 287.07C366.831 286.875 366.76 286.685 366.628 286.542L360.406 279.736C360.339 279.66 360.258 279.597 360.167 279.554C360.075 279.51 359.976 279.485 359.875 279.481C359.773 279.476 359.672 279.493 359.578 279.529C359.483 279.565 359.397 279.62 359.324 279.691Z" fill="#464A5F"></path><path d="M262.659 164.473L257.353 169.891C257.206 170.039 257.088 170.213 257.008 170.406C256.928 170.599 256.887 170.805 256.887 171.014C256.887 171.222 256.928 171.429 257.008 171.621C257.088 171.814 257.206 171.989 257.353 172.136L272.167 186.802C272.46 187.091 272.853 187.255 273.264 187.26C273.675 187.265 274.072 187.11 274.372 186.829L279.902 181.626C280.057 181.48 280.182 181.304 280.268 181.109C280.354 180.914 280.4 180.703 280.402 180.49C280.405 180.277 280.365 180.065 280.285 179.868C280.204 179.67 280.085 179.491 279.934 179.341L264.895 164.464C264.597 164.17 264.194 164.005 263.775 164.007C263.356 164.009 262.955 164.176 262.659 164.473Z" fill="#464A5F"></path><path d="M359.629 260.244L353.142 266.866C353.006 267.006 352.929 267.195 352.929 267.391C352.929 267.587 353.006 267.775 353.142 267.916L369.128 283.74C369.266 283.875 369.452 283.95 369.644 283.95C369.837 283.95 370.022 283.875 370.161 283.74L376.921 277.379C376.993 277.31 377.051 277.227 377.09 277.135C377.129 277.044 377.149 276.945 377.149 276.845C377.149 276.745 377.129 276.646 377.09 276.555C377.051 276.463 376.993 276.38 376.921 276.311L360.657 260.222C360.516 260.092 360.33 260.021 360.139 260.026C359.947 260.03 359.764 260.108 359.629 260.244Z" fill="#464A5F"></path><path d="M292.198 212.902L286.007 219.034C285.938 219.102 285.883 219.184 285.846 219.274C285.809 219.363 285.789 219.46 285.789 219.557C285.789 219.654 285.809 219.75 285.846 219.84C285.883 219.93 285.938 220.011 286.007 220.08L320.479 255.414C320.619 255.55 320.806 255.626 321 255.626C321.195 255.626 321.382 255.55 321.521 255.414L328.255 249.062C328.326 248.993 328.383 248.91 328.421 248.819C328.46 248.727 328.48 248.629 328.48 248.53C328.48 248.431 328.46 248.332 328.421 248.241C328.383 248.15 328.326 248.067 328.255 247.998L293.239 212.888C293.098 212.754 292.91 212.68 292.716 212.683C292.521 212.685 292.335 212.764 292.198 212.902Z" fill="#464A5F"></path><path opacity="0.1" d="M267.88 217.211L240.663 244.249C239.908 245 239.48 246.018 239.472 247.082C239.464 248.146 239.875 249.17 240.618 249.933L290.959 301.63C291.33 302.011 291.773 302.315 292.263 302.525C292.752 302.735 293.278 302.846 293.81 302.852C294.342 302.858 294.87 302.758 295.364 302.559C295.858 302.36 296.308 302.066 296.687 301.692L324.713 274.125C325.092 273.751 325.394 273.305 325.601 272.814C325.807 272.323 325.915 271.796 325.917 271.263C325.919 270.73 325.816 270.202 325.613 269.709C325.41 269.217 325.112 268.769 324.735 268.392L273.586 217.211C272.829 216.456 271.803 216.032 270.733 216.032C269.664 216.032 268.638 216.456 267.88 217.211Z" fill="black"></path><path d="M267.88 216.103L240.663 243.163C239.908 243.913 239.48 244.931 239.472 245.995C239.464 247.059 239.875 248.084 240.618 248.846L290.959 300.543C291.33 300.925 291.773 301.229 292.263 301.439C292.752 301.648 293.278 301.759 293.81 301.765C294.342 301.771 294.87 301.672 295.364 301.473C295.858 301.274 296.308 300.979 296.687 300.606L324.713 273.038C325.092 272.664 325.394 272.219 325.601 271.728C325.807 271.237 325.915 270.709 325.917 270.177C325.919 269.644 325.816 269.116 325.613 268.623C325.41 268.13 325.112 267.683 324.735 267.306L273.586 216.129C272.832 215.371 271.808 214.942 270.739 214.937C269.669 214.932 268.641 215.351 267.88 216.103Z" fill="#B0B0B0"></path><path d="M294.025 74.2144L287.134 122.392L414.814 249.663L421.314 201.908C421.489 200.618 421.363 199.306 420.946 198.073C420.53 196.84 419.834 195.721 418.913 194.802L296.858 73.2627C296.638 73.0437 296.361 72.8902 296.059 72.8195C295.757 72.7489 295.441 72.7638 295.147 72.8626C294.853 72.9614 294.592 73.1403 294.394 73.379C294.196 73.6178 294.068 73.9071 294.025 74.2144Z" fill="#18A558"></path><path opacity="0.1" d="M132.47 307.744C138.2 307.744 142.844 307.107 142.844 306.321C142.844 305.535 138.2 304.898 132.47 304.898C126.74 304.898 122.096 305.535 122.096 306.321C122.096 307.107 126.74 307.744 132.47 307.744Z" fill="#536DFE"></path><path opacity="0.1" d="M92.7231 311.775C98.4528 311.775 103.098 311.138 103.098 310.352C103.098 309.566 98.4528 308.929 92.7231 308.929C86.9935 308.929 82.3488 309.566 82.3488 310.352C82.3488 311.138 86.9935 311.775 92.7231 311.775Z" fill="#536DFE"></path><path opacity="0.1" d="M45.9104 306.321C51.64 306.321 56.2848 305.684 56.2848 304.898C56.2848 304.112 51.64 303.475 45.9104 303.475C40.1808 303.475 35.536 304.112 35.536 304.898C35.536 305.684 40.1808 306.321 45.9104 306.321Z" fill="#536DFE"></path><path opacity="0.1" d="M108.633 322.841C112.706 322.841 116.008 322.386 116.008 321.826C116.008 321.266 112.706 320.812 108.633 320.812C104.559 320.812 101.257 321.266 101.257 321.826C101.257 322.386 104.559 322.841 108.633 322.841Z" fill="#536DFE"></path><path opacity="0.1" d="M67.3819 321.826C71.4554 321.826 74.7576 321.372 74.7576 320.812C74.7576 320.251 71.4554 319.797 67.3819 319.797C63.3085 319.797 60.0063 320.251 60.0063 320.812C60.0063 321.372 63.3085 321.826 67.3819 321.826Z" fill="#536DFE"></path><path d="M92.5031 310.033C92.5031 310.033 107.052 262.332 90.2227 243.248C77.6531 228.955 63.3462 230.679 56.9447 232.434C55.2894 232.875 53.7497 233.67 52.432 234.764C51.1143 235.859 50.0502 237.226 49.3132 238.773C47.0686 243.603 47.4816 251.436 63.2744 260.581C89.7244 275.893 91.3674 296.898 91.3674 296.898L92.5031 310.033Z" fill="#18A558"></path><path d="M59.2117 239.177C59.2117 239.177 102.11 252.586 92.4942 310.033" stroke="#565987" stroke-miterlimit="10"></path><path d="M84.2746 243.985C84.2746 243.985 78.3714 247.962 80.2343 253.946" stroke="#565987" stroke-miterlimit="10"></path><path d="M63.5258 247.526C63.5258 247.526 67.1171 243.854 71.5299 245.879" stroke="#565987" stroke-miterlimit="10"></path><path d="M80.4813 265.999C80.4813 265.999 86.8199 262.781 88.4629 266.812" stroke="#565987" stroke-miterlimit="10"></path><path d="M96.1708 272.706C96.1708 272.706 91.4078 272.329 91.3225 274.605" stroke="#565987" stroke-miterlimit="10"></path><path d="M93.0912 310.415C93.0912 310.415 76.0325 275.745 71.3638 276.504C69.1417 276.863 68.1181 279.049 67.6558 281.249C67.0822 284.09 67.4054 287.039 68.5805 289.688C71.0002 295.237 77.496 305.773 93.0912 310.415Z" fill="#18A558"></path><path d="M71.494 283.08C71.494 283.08 89.3787 309.023 92.8353 310.159" stroke="#565987" stroke-miterlimit="10"></path><path d="M69.8464 287.13H74.0213" stroke="#565987" stroke-miterlimit="10"></path><path d="M74.8474 296.62L81.3925 296.898" stroke="#565987" stroke-miterlimit="10"></path><path d="M78.8292 289.029L78.1199 292.436" stroke="#565987" stroke-miterlimit="10"></path><path d="M85.7919 299.403L85.6617 302.5" stroke="#565987" stroke-miterlimit="10"></path><path d="M92.584 310.415C92.584 310.415 109.643 275.745 114.307 276.504C116.551 276.863 117.557 279.049 118.019 281.249C118.594 284.09 118.269 287.04 117.09 289.688C114.675 295.237 108.179 305.773 92.584 310.415Z" fill="#18A558"></path><path d="M114.181 283.08C114.181 283.08 96.292 309.023 92.8353 310.159" stroke="#565987" stroke-miterlimit="10"></path><path d="M115.824 287.13H111.649" stroke="#565987" stroke-miterlimit="10"></path><path d="M110.823 296.62L104.278 296.898" stroke="#565987" stroke-miterlimit="10"></path><path d="M106.841 289.029L107.551 292.436" stroke="#565987" stroke-miterlimit="10"></path><path d="M99.8833 299.403L100.009 302.5" stroke="#565987" stroke-miterlimit="10"></path><path d="M63.3193 318.509C62.8546 318.131 62.5163 317.62 62.3496 317.045C62.275 316.757 62.3015 316.451 62.4249 316.18C62.5483 315.909 62.761 315.688 63.0275 315.555C63.6515 315.317 64.3159 315.748 64.8231 316.183C65.3304 316.619 65.9095 317.117 66.5694 317.027C66.2294 316.72 65.9749 316.33 65.8309 315.894C65.6869 315.459 65.6583 314.994 65.7479 314.545C65.7752 314.358 65.8545 314.182 65.9768 314.037C66.3225 313.669 66.9465 313.826 67.3595 314.118C68.6793 315.043 69.0429 316.812 69.0519 318.441C69.1256 317.845 69.1331 317.243 69.0743 316.646C69.0495 316.348 69.0974 316.05 69.2139 315.775C69.3305 315.501 69.5121 315.259 69.7432 315.07C70.0565 314.904 70.4077 314.822 70.7623 314.832C71.0544 314.786 71.353 314.802 71.6384 314.88C71.9239 314.957 72.1898 315.094 72.4188 315.281C72.9215 315.82 72.7914 316.718 72.3514 317.31C71.8648 317.863 71.2862 318.328 70.6411 318.684C70.1492 318.975 69.7301 319.374 69.4155 319.851C69.3794 319.917 69.3494 319.986 69.3257 320.057H65.6177C64.7856 319.647 64.0125 319.126 63.3193 318.509Z" fill="#18A558"></path><path d="M128.264 304.547C127.798 304.169 127.459 303.659 127.289 303.084C127.216 302.795 127.243 302.49 127.366 302.219C127.489 301.948 127.701 301.728 127.967 301.594C128.591 301.356 129.256 301.787 129.763 302.222C130.27 302.658 130.845 303.156 131.505 303.062C131.165 302.754 130.911 302.363 130.768 301.928C130.624 301.493 130.595 301.029 130.683 300.579C130.713 300.394 130.793 300.221 130.912 300.076C131.258 299.704 131.882 299.865 132.299 300.157C133.615 301.082 133.983 302.851 133.987 304.476C134.063 303.88 134.072 303.278 134.014 302.68C133.986 302.382 134.032 302.082 134.149 301.807C134.266 301.532 134.449 301.291 134.683 301.104C134.995 300.935 135.347 300.853 135.702 300.866C135.994 300.822 136.291 300.838 136.576 300.916C136.86 300.993 137.125 301.129 137.354 301.315C137.857 301.854 137.727 302.756 137.291 303.349C136.801 303.893 136.221 304.348 135.576 304.696C135.089 304.99 134.672 305.389 134.355 305.863C134.317 305.929 134.287 306 134.266 306.074H130.553C129.725 305.669 128.955 305.156 128.264 304.547Z" fill="#18A558"></path><path d="M106.617 318.509C106.152 318.131 105.814 317.62 105.647 317.045C105.573 316.757 105.599 316.451 105.723 316.18C105.846 315.909 106.059 315.688 106.325 315.555C106.949 315.317 107.614 315.748 108.121 316.183C108.628 316.619 109.207 317.117 109.867 317.027C109.527 316.72 109.273 316.33 109.129 315.894C108.985 315.459 108.956 314.994 109.046 314.545C109.073 314.358 109.152 314.182 109.275 314.037C109.62 313.669 110.244 313.826 110.657 314.118C111.973 315.043 112.341 316.812 112.35 318.441C112.423 317.845 112.431 317.243 112.372 316.646C112.347 316.35 112.395 316.052 112.511 315.778C112.626 315.505 112.807 315.263 113.036 315.074C113.35 314.908 113.701 314.826 114.056 314.836C114.348 314.791 114.646 314.807 114.932 314.884C115.217 314.961 115.483 315.098 115.712 315.285C116.215 315.824 116.085 316.722 115.645 317.315C115.158 317.868 114.579 318.332 113.934 318.688C113.442 318.979 113.023 319.378 112.709 319.855C112.673 319.921 112.643 319.99 112.619 320.062H108.911C108.08 319.649 107.309 319.127 106.617 318.509Z" fill="#18A558"></path><path d="M45.237 290.285C45.237 290.285 43.8454 292.104 45.879 294.846C47.9125 297.589 49.587 299.91 48.9091 301.621C48.9091 301.621 45.8431 296.521 43.3471 296.454C40.8511 296.386 42.4897 293.352 45.237 290.285Z" fill="#18A558"></path><path opacity="0.1" d="M45.237 290.285C45.1167 290.461 45.0215 290.653 44.9542 290.856C42.5166 293.715 41.2192 296.386 43.5626 296.454C45.7398 296.512 48.357 300.413 48.981 301.392C48.9618 301.468 48.9378 301.543 48.9091 301.616C48.9091 301.616 45.8431 296.516 43.3471 296.449C40.8511 296.382 42.4897 293.352 45.237 290.285Z" fill="black"></path><path d="M42.6513 292.602C42.6513 293.244 42.7231 293.76 42.8129 293.76C42.9026 293.76 42.9745 293.244 42.9745 292.602C42.9745 291.96 42.8847 292.265 42.7949 292.265C42.7052 292.265 42.6513 291.96 42.6513 292.602Z" fill="#FFD037"></path><path d="M41.7669 293.365C42.3279 293.67 42.8171 293.859 42.8575 293.778C42.8979 293.697 42.4805 293.392 41.9195 293.082C41.3584 292.773 41.5783 293.001 41.538 293.082C41.4976 293.163 41.2058 293.078 41.7669 293.365Z" fill="#FFD037"></path><path d="M52.5812 290.285C52.5812 290.285 53.9684 292.104 51.9393 294.846C49.9102 297.589 48.2312 299.91 48.9091 301.621C48.9091 301.621 51.9752 296.521 54.4711 296.454C56.9671 296.386 55.3241 293.352 52.5812 290.285Z" fill="#18A558"></path><path opacity="0.1" d="M52.5813 290.285C52.7016 290.461 52.7968 290.653 52.8641 290.856C55.2972 293.715 56.5945 296.386 54.2557 296.454C52.074 296.512 49.4613 300.413 48.8328 301.392C48.8535 301.468 48.879 301.543 48.9091 301.616C48.9091 301.616 51.9752 296.516 54.4712 296.449C56.9671 296.382 55.3241 293.352 52.5813 290.285Z" fill="black"></path><path d="M55.1715 292.602C55.1715 293.244 55.0996 293.76 55.0144 293.76C54.9291 293.76 54.8528 293.244 54.8528 292.602C54.8528 291.96 54.9426 292.265 55.0323 292.265C55.1221 292.265 55.1715 291.96 55.1715 292.602Z" fill="#FFD037"></path><path d="M56.0691 293.365C55.5081 293.67 55.0188 293.859 54.9739 293.778C54.9291 293.697 55.3555 293.392 55.9165 293.082C56.4776 292.773 56.2576 293.001 56.298 293.082C56.3384 293.163 56.6122 293.078 56.0691 293.365Z" fill="#FFD037"></path><path d="M54.7226 301.383C54.7226 301.383 50.835 301.261 49.6633 300.431C48.4917 299.6 43.6838 298.599 43.3785 299.937C43.0733 301.275 37.5427 306.59 41.9286 306.626C46.3144 306.662 52.1234 305.944 53.295 305.23C54.4667 304.516 54.7226 301.383 54.7226 301.383Z" fill="#A8A8A8"></path><path opacity="0.2" d="M41.8612 306.159C46.2516 306.195 52.0605 305.477 53.2277 304.763C54.1255 304.22 54.4712 302.276 54.5744 301.378H54.7226C54.7226 301.378 54.4757 304.521 53.3085 305.225C52.1413 305.93 46.3279 306.657 41.942 306.621C40.6761 306.621 40.2361 306.173 40.2586 305.495C40.4381 305.899 40.9185 306.15 41.8612 306.159Z" fill="black"></path><path d="M77.4196 149.973C77.3478 151.858 78.9639 154.363 78.9639 154.363C79.4577 155.553 85.5135 161.066 85.5135 161.066L90.0027 164.064C89.0958 164.734 88.145 165.341 87.1566 165.883C84.9704 167 83.7762 170.699 83.7762 170.699C83.7762 170.699 80.4633 178.659 87.1566 179.776L87.2823 179.799L87.8838 180.45C89.3652 182.048 91.1743 183.956 91.8028 184.382C92.9296 185.15 96.3817 190.945 96.3817 190.945C96.3817 190.945 100.04 196.952 104.911 197.23C109.782 197.508 109.768 191.924 109.4 191.574C109.254 191.34 109.152 191.081 109.099 190.811C110.262 192.683 111.847 195.143 112.359 195.484C113.203 196.041 115.95 200.422 115.95 200.422C115.95 200.422 119.402 208.309 119.963 209.149C120.524 209.988 121.512 214.177 121.512 214.177C121.512 214.177 123.487 219.968 124.403 220.74C125.319 221.512 125.808 224.3 125.808 224.3C125.808 224.3 128.695 228.488 129.188 229.184C129.766 230.2 130.283 231.249 130.737 232.326C130.737 232.326 132.286 234.84 132.286 235.819C132.286 236.797 135.527 238.467 135.527 238.467C135.527 238.467 137.852 241.192 139.19 241.682C140.528 242.171 141.794 245.381 142.005 245.17C142.129 245.11 142.267 245.082 142.404 245.089L142.952 245.636C145.089 247.764 149.358 252.007 150.453 252.99C151.935 254.336 155.315 254.525 158.13 253.968C159.575 253.681 161.335 252.312 162.704 251.046C163.014 250.756 163.262 250.407 163.433 250.019C163.604 249.631 163.695 249.212 163.7 248.788C163.705 248.364 163.624 247.943 163.462 247.551C163.3 247.159 163.061 246.804 162.758 246.507C161.411 245.21 159.854 243.787 159.167 243.567C157.901 243.145 154.31 240.636 152.622 238.539C151.724 237.448 150.148 236.411 148.824 235.671L148.662 235.576C148.46 234.808 148.323 234.024 148.254 233.233C148.254 233.233 150.579 227.999 149.309 227.72C148.038 227.442 143.253 219.133 143.253 219.133C143.186 212.848 137.417 207.542 137.417 207.542C137.417 207.542 134.53 200.7 133.686 199.237C133.436 198.866 133.302 198.428 133.302 197.98C133.302 197.532 133.436 197.094 133.686 196.723C133.686 196.723 132.066 195.466 131.788 194.837C131.509 194.209 130.167 189.45 130.167 189.45C130.167 189.45 128.546 186.586 128.475 185.262C128.403 183.938 125.247 180.243 125.247 180.243C125.247 180.243 123.968 174.021 122.553 172.904C122.28 172.688 122.32 171.867 122.553 170.686L122.621 170.614L122.836 170.403L122.899 170.34C123.546 169.702 124.155 169.026 124.722 168.316L124.749 168.28C124.838 168.168 124.924 168.06 125.004 167.948C127.047 165.155 128.313 158.52 128.313 158.52C128.313 158.52 128.717 158.332 129.242 158.045C129.98 157.676 130.663 157.206 131.271 156.648C131.3 156.616 131.325 156.58 131.343 156.541C131.346 156.529 131.346 156.517 131.343 156.505C131.357 156.477 131.369 156.449 131.379 156.419C131.381 156.403 131.381 156.386 131.379 156.37C131.382 156.337 131.382 156.304 131.379 156.271C131.379 156.271 131.379 156.24 131.379 156.222V156.06C131.379 156.002 131.379 155.944 131.357 155.881C131.356 155.873 131.356 155.866 131.357 155.858C131.357 155.804 131.334 155.751 131.321 155.692V155.638C131.321 155.589 131.294 155.54 131.276 155.486C131.277 155.466 131.277 155.447 131.276 155.427L131.222 155.261C131.22 155.248 131.22 155.234 131.222 155.221C131.137 154.996 131.033 154.772 130.917 154.53L130.795 154.301C130.576 153.883 130.347 153.475 130.104 153.12L130.068 153.066C130.562 151.674 131.518 149.223 132.407 148.343C133.673 147.087 131.702 140.384 131.702 140.384C131.702 140.384 131.28 135.639 130.715 134.243C130.149 132.847 130.715 132.645 130.266 131.451C129.723 130.104 129.328 130.194 130.028 127.123C130.293 125.965 130.701 124.69 131.069 123.501L131.518 123.914C134.122 126.369 138.212 129.565 138.212 129.565C138.212 129.565 146.238 136.824 146.943 137.035C147.648 137.246 149.762 144.366 149.762 144.366C149.762 144.366 149.268 156.164 155.746 156.653C158.498 156.859 159.665 154.732 160.087 152.222C160.399 150.275 160.277 148.282 159.728 146.388C159.179 144.493 158.218 142.743 156.913 141.264L153.035 136.856L149.583 130.715C147.385 127.248 145.534 123.573 144.056 119.743C142.488 115.991 140.187 112.589 137.287 109.737L137.008 109.463L137.368 109.131C137.368 109.131 136.802 104.525 136.38 103.968C135.958 103.412 134.409 100.198 134.409 99.4793C134.409 98.761 133.422 98.6443 132.86 97.8048C132.86 97.8048 131.873 95.852 130.957 95.5603C130.79 95.4953 130.637 95.3977 130.508 95.2729C128.902 93.8534 126.887 92.9809 124.753 92.7815L124.192 92.7276C122.944 92.6711 121.694 92.6891 120.448 92.7815H120.417C119.46 92.4942 118.738 91.749 117.997 91.0846C116.804 90.0173 115.481 89.1048 114.06 88.3687C112.601 87.61 110.949 87.0219 109.319 87.3003C108.045 87.5068 106.904 88.1981 105.661 88.5617C103.892 89.06 101.719 88.9567 100.606 90.4067C100.072 91.0981 99.9192 92.0183 99.4209 92.7321C98.7116 93.7466 97.4098 94.218 96.678 95.2191C96.1883 95.9477 95.9647 96.8229 96.0451 97.6971C96.0206 98.4047 96.1054 99.1118 96.2964 99.7935C96.4829 100.379 96.6196 100.98 96.705 101.589C96.6951 101.689 96.6786 101.788 96.6556 101.885C96.5568 102.334 96.3279 102.711 96.2381 103.147C96.1926 103.384 96.185 103.626 96.2156 103.865C96.081 104.938 96.7723 105.957 97.2392 106.954C97.6004 107.732 97.8382 108.562 97.944 109.414C96.7757 109.759 95.6365 110.196 94.5367 110.72C93.0688 111.429 91.5918 112.39 90.7479 113.62C89.374 115.552 87.654 117.212 85.6751 118.518C85.0661 120.017 84.5489 121.552 84.1264 123.115C83.7044 124.91 83.2824 127.86 82.0165 129.399C80.7506 130.939 80.167 135.509 80.167 135.509C80.167 135.509 78.4746 138.229 78.4746 138.791C78.4746 139.352 78.2636 141.933 78.4746 142.696C78.5987 142.936 78.7644 143.152 78.9639 143.334L78.8382 143.783C78.2546 145.834 77.4645 148.792 77.4196 149.973ZM117.122 118.527C117.086 118.684 117.045 118.832 116.996 118.976C116.996 118.832 117.018 118.693 117.027 118.549L117.122 118.527ZM101.077 178.196L100.853 177.99L100.745 177.891C100.745 177.837 100.772 177.783 100.786 177.72L101.077 178.196ZM89.4056 149.623L89.4954 149.457L89.8276 148.855L92.5211 146.656L92.8668 146.97C92.8668 146.97 92.5839 149.901 91.8836 149.762C91.722 149.731 91.6502 150.404 91.6322 151.459C90.3618 150.373 89.3922 149.623 89.3922 149.623H89.4056Z" fill="url(#paint0_linear)"></path><path d="M113.714 95.246C113.714 95.246 122.096 94.4918 124.089 94.6983L124.632 94.7477C126.712 94.9594 128.669 95.829 130.221 97.2302C130.35 97.3533 130.503 97.4494 130.67 97.513C131.568 97.7869 132.524 99.7127 132.524 99.7127C132.524 99.7127 130.396 116.542 130.396 116.749C130.396 116.955 125.997 124.578 125.997 124.578L121.736 126.23L114.388 127.267L114.181 124.098C114.181 124.098 117.719 122.158 117.324 118.15C116.929 114.141 113.714 95.246 113.714 95.246Z" fill="#656691"></path><path d="M117.835 115.236C117.835 115.236 116.04 123.343 117.835 125.952C119.631 128.56 100.112 121.696 100.112 121.696L96.5209 115.236C96.5209 115.236 97.8676 114.28 99.3849 113.045C101.522 111.326 104.081 109.073 104.081 108.107C104.103 106.442 117.835 115.236 117.835 115.236Z" fill="#ECB4B6"></path><path opacity="0.1" d="M117.835 115.236C117.835 115.236 116.04 123.343 117.835 125.952C119.631 128.56 100.112 121.696 100.112 121.696L96.5209 115.236C96.5209 115.236 97.8676 114.28 99.3849 113.045C101.522 111.326 104.081 109.073 104.081 108.107C104.103 106.442 117.835 115.236 117.835 115.236Z" fill="black"></path><path opacity="0.1" d="M113.714 120.61C120.317 120.61 125.669 115.257 125.669 108.655C125.669 102.053 120.317 96.7005 113.714 96.7005C107.112 96.7005 101.76 102.053 101.76 108.655C101.76 115.257 107.112 120.61 113.714 120.61Z" fill="black"></path><path d="M113.714 120.057C120.317 120.057 125.669 114.705 125.669 108.103C125.669 101.501 120.317 96.1483 113.714 96.1483C107.112 96.1483 101.76 101.501 101.76 108.103C101.76 114.705 107.112 120.057 113.714 120.057Z" fill="#ECB4B6"></path><path d="M129.17 122.939C129.215 123.388 130.068 124.318 131.226 125.417C133.767 127.833 137.758 130.98 137.758 130.98C137.758 130.98 145.592 138.122 146.287 138.328C146.983 138.535 149.035 145.542 149.035 145.542C149.035 145.542 148.554 157.151 154.871 157.632C157.564 157.834 158.695 155.746 159.108 153.273C159.412 151.36 159.293 149.404 158.759 147.542C158.224 145.681 157.288 143.959 156.015 142.499L152.263 138.131L148.896 132.084C146.737 128.679 144.92 125.071 143.468 121.31C141.949 117.612 139.707 114.254 136.874 111.434C136.169 110.734 135.716 110.361 135.716 110.361L132.573 111.322C132.573 111.322 129.036 121.557 129.17 122.939Z" fill="#ECB4B6"></path><path d="M141.192 243.98L142.395 245.188C144.478 247.284 148.644 251.472 149.713 252.424C151.154 253.73 154.453 253.937 157.201 253.385C158.61 253.106 160.343 251.755 161.663 250.512C161.968 250.227 162.212 249.883 162.38 249.501C162.549 249.119 162.638 248.706 162.643 248.289C162.647 247.871 162.567 247.457 162.407 247.072C162.247 246.686 162.011 246.337 161.712 246.045C160.41 244.77 158.884 243.352 158.229 243.15C156.994 242.737 153.488 240.268 151.841 238.212C150.983 237.139 149.43 236.12 148.141 235.388C146.956 234.719 146 234.297 146 234.297L141.192 243.98Z" fill="#C17174"></path><path opacity="0.1" d="M142.889 243.98C142.889 243.98 143.289 244.389 143.908 245.008C145.681 246.804 149.223 250.341 150.135 251.163C151.36 252.271 154.175 252.447 156.5 251.98C157.551 251.769 158.803 250.866 159.863 249.933C160.185 249.651 160.445 249.305 160.626 248.918C160.808 248.53 160.907 248.109 160.918 247.681C160.928 247.253 160.85 246.828 160.688 246.432C160.525 246.036 160.283 245.678 159.975 245.381C158.96 244.406 157.874 243.441 157.376 243.275C156.325 242.925 153.335 240.82 151.944 239.069C151.042 238.093 149.979 237.281 148.801 236.667C147.796 236.097 146.983 235.738 146.983 235.738L142.889 243.98Z" fill="black"></path><path d="M86.5954 178.712C86.5954 178.712 87.5381 179.776 88.6828 181.024C90.1239 182.6 91.8926 184.477 92.5031 184.894C93.6029 185.653 96.9698 191.354 96.9698 191.354C96.9698 191.354 100.561 197.262 105.284 197.535C110.006 197.809 110.024 192.315 109.679 191.973C109.333 191.632 108.857 188.535 108.17 186.268C107.649 184.553 103.389 180.477 101.351 178.596C100.696 177.99 100.269 177.613 100.269 177.613L86.5954 178.712Z" fill="#C17174"></path><path opacity="0.1" d="M87.6055 179.503C87.6055 179.503 88.4584 180.472 89.5044 181.613C90.8197 183.049 92.4313 184.755 92.9879 185.141C93.9935 185.832 97.0596 191.031 97.0596 191.031C97.0596 191.031 100.319 196.418 104.642 196.665C108.965 196.911 108.96 191.906 108.651 191.592C108.341 191.278 107.896 188.449 107.272 186.393C106.797 184.831 102.913 181.114 101.055 179.399C100.458 178.847 100.067 178.502 100.067 178.502L87.6055 179.503Z" fill="black"></path><path opacity="0.1" d="M86.5954 178.712C86.5954 178.712 87.5381 179.776 88.6828 181.024C94.7162 181.922 97.522 180.912 97.522 180.912C97.522 180.912 100.337 179.673 100.956 179.606C101.113 179.606 101.226 179.197 101.351 178.596C100.696 177.99 100.269 177.613 100.269 177.613L86.5954 178.712Z" fill="black"></path><path d="M93.8633 162.502C93.8633 162.502 90.0835 165.586 87.9422 166.691C85.8008 167.795 84.6561 171.422 84.6561 171.422C84.6561 171.422 81.4284 179.256 87.9511 180.351C94.4739 181.446 97.504 180.351 97.504 180.351C97.504 180.351 100.319 179.117 100.938 179.049C101.558 178.982 101.553 173.07 103.82 171.283C106.087 169.496 111.308 165.447 111.308 165.447L93.8633 162.502Z" fill="#5E5A6B"></path><path opacity="0.1" d="M93.8633 162.502C93.8633 162.502 90.0835 165.586 87.9422 166.691C85.8008 167.795 84.6561 171.422 84.6561 171.422C84.6561 171.422 81.4284 179.256 87.9511 180.351C94.4739 181.446 97.504 180.351 97.504 180.351C97.504 180.351 100.319 179.117 100.938 179.049C101.558 178.982 101.553 173.07 103.82 171.283C106.087 169.496 111.308 165.447 111.308 165.447L93.8633 162.502Z" fill="black"></path><path d="M129.166 153.089C129.166 153.089 131.859 156.756 131.024 157.636C130.189 158.516 128.142 159.477 128.142 159.477C128.142 159.477 126.903 166.004 124.91 168.751C122.917 171.498 119.007 174.524 119.007 174.524L121.75 159.203L129.166 153.089Z" fill="#5E5A6B"></path><path opacity="0.1" d="M119.011 174.524C120.234 173.559 121.405 172.531 122.522 171.445C123.39 170.613 124.189 169.713 124.91 168.751C126.903 166.004 128.142 159.477 128.142 159.477C128.142 159.477 130.203 158.516 131.024 157.636C131.527 157.102 130.733 155.544 130.032 154.399C129.583 153.654 129.17 153.089 129.17 153.089L125.278 156.294L121.75 159.203L120.713 165.137L119.011 174.524Z" fill="black"></path><path opacity="0.1" d="M141.192 243.98L142.395 245.188C143.154 245.188 144.285 245.282 144.285 245.282C144.285 245.282 149.847 238.616 148.954 237.448C148.55 236.819 148.274 236.115 148.141 235.379C146.956 234.71 146 234.288 146 234.288L141.192 243.98Z" fill="black"></path><path d="M98.7385 173.631C98.7385 174.798 108.08 189.087 108.08 189.087C108.08 189.087 111.721 195.268 112.547 195.821C113.373 196.373 116.049 200.696 116.049 200.696C116.049 200.696 119.415 208.458 119.968 209.284C120.52 210.11 121.476 214.222 121.476 214.222C121.476 214.222 123.402 219.923 124.295 220.677C125.189 221.431 125.669 224.183 125.669 224.183C125.669 224.183 128.484 228.304 128.964 228.991C129.528 229.99 130.033 231.021 130.477 232.079C130.477 232.079 131.99 234.553 131.99 235.518C131.99 236.483 135.132 238.126 135.132 238.126C135.132 238.126 137.377 240.82 138.701 241.269C140.025 241.718 141.246 244.909 141.448 244.703C141.65 244.496 143.994 244.703 143.994 244.703C143.994 244.703 149.556 238.041 148.662 236.874C147.769 235.707 147.562 232.955 147.562 232.955C147.562 232.955 149.807 227.806 148.595 227.532C147.383 227.258 142.71 219.106 142.71 219.106C142.642 212.924 137.008 207.703 137.008 207.703C137.008 207.703 134.189 200.97 133.368 199.529C133.122 199.163 132.991 198.732 132.991 198.292C132.991 197.851 133.122 197.421 133.368 197.055C133.368 197.055 131.788 195.821 131.514 195.201C131.24 194.582 129.934 189.913 129.934 189.913C129.934 189.913 128.353 187.094 128.282 185.787C128.21 184.481 125.139 180.849 125.139 180.849C125.139 180.849 123.891 174.731 122.517 173.631C122.248 173.415 122.293 172.612 122.517 171.445C123.15 168.37 125.166 162.812 126.558 159.171C127.352 157.088 127.94 155.629 127.94 155.629L125.283 156.294L102.658 161.95C102.658 161.95 101.432 165.241 100.355 168.343C99.4972 170.785 98.7385 173.115 98.7385 173.631Z" fill="#5E5A6B"></path><path opacity="0.1" d="M142.638 229.893C142.638 229.893 149.713 227.146 146.229 230.647C142.746 234.149 136.066 233.947 136.066 233.947L142.638 229.893Z" fill="black"></path><path opacity="0.1" d="M130.544 215.865C130.544 215.865 126.562 218.064 127.316 220.192C128.071 222.32 130.544 215.865 130.544 215.865Z" fill="black"></path><path opacity="0.1" d="M126.549 198.842C126.164 199.531 125.592 200.098 124.898 200.474C124.204 200.851 123.417 201.023 122.63 200.97C119.761 200.902 126.549 198.842 126.549 198.842Z" fill="black"></path><path opacity="0.1" d="M89.1902 168.28C89.1902 168.28 90.703 172.953 89.1902 173.294C87.6774 173.635 89.1902 168.28 89.1902 168.28Z" fill="black"></path><path opacity="0.1" d="M129.17 122.939C129.215 123.388 130.068 124.318 131.226 125.417C131.882 123.308 132.492 121.377 132.124 120.74C131.577 119.779 133.722 117.719 133.336 116.345C133.04 115.294 135.626 112.632 136.856 111.443C136.151 110.743 135.698 110.37 135.698 110.37L132.555 111.331C132.555 111.331 129.036 121.557 129.17 122.939Z" fill="black"></path><path opacity="0.1" d="M100.35 168.343C102.958 168.199 109.041 166.314 109.041 166.314C109.041 166.314 116.094 166.08 120.713 165.137C122.957 164.688 124.591 164.047 124.591 163.198C124.591 162.062 125.521 160.54 126.576 159.158C127.297 158.244 128.067 157.371 128.883 156.541C129.312 156.101 129.638 155.572 129.839 154.992C129.902 154.808 129.978 154.601 130.055 154.386C129.606 153.641 129.193 153.075 129.193 153.075L125.301 156.28L102.676 161.937C102.676 161.937 101.41 165.241 100.35 168.343Z" fill="black"></path><path d="M92.8309 163.876C92.8309 163.876 97.9126 166.897 99.4254 167.445C100.938 167.993 109.041 165.488 109.041 165.488C109.041 165.488 124.569 164.976 124.569 162.345C124.569 160.33 127.514 157.088 128.861 155.715C129.291 155.274 129.617 154.744 129.817 154.161C130.288 152.815 131.24 150.314 132.124 149.43C133.363 148.195 131.437 141.601 131.437 141.601C131.437 141.601 131.024 136.928 130.477 135.554C129.929 134.18 130.477 133.978 130.028 132.807C129.498 131.491 129.13 131.568 129.799 128.546C130.468 125.525 132.133 121.678 131.595 120.713C131.056 119.748 133.193 117.692 132.807 116.318C132.421 114.944 136.95 110.823 136.95 110.823C136.95 110.823 136.384 106.33 135.976 105.755C135.567 105.18 134.055 102.047 134.055 101.36C134.055 100.673 133.089 100.534 132.542 99.7127C131.994 98.8912 125.651 121.009 125.651 121.009L116.408 123.092L115.896 123.204C115.896 123.204 110.639 123.451 107.228 121.557C107.228 121.557 101.333 120.596 99.4075 110.841C97.9346 111.211 96.5028 111.728 95.1338 112.386C93.7018 113.081 92.2653 114.029 91.4393 115.236C90.1066 117.136 88.4321 118.771 86.5012 120.057C85.9075 121.533 85.4024 123.042 84.9884 124.578C84.5799 126.374 84.1669 129.251 82.9279 130.764C81.6889 132.277 81.1322 136.806 81.1322 136.806L93.5177 148.079C93.5177 148.079 93.2439 150.965 92.5571 150.826C91.8702 150.687 92.8309 163.876 92.8309 163.876Z" fill="#656691"></path><path opacity="0.1" d="M95.1517 112.933L101.76 126.71C101.76 126.71 104.507 128.506 105.472 127.532C106.437 126.558 110.074 126.571 110.074 126.571L110.554 127.532L117.517 125.889L116.426 123.644L115.914 123.761C115.914 123.761 110.657 124.008 107.245 122.113C107.245 122.113 101.351 121.148 99.4254 111.393C97.9527 111.762 96.5209 112.278 95.1517 112.933Z" fill="black"></path><path d="M95.1517 112.386L101.76 126.158C101.76 126.158 104.507 127.954 105.472 126.984C106.437 126.015 110.074 126.024 110.074 126.024L110.554 126.984L117.517 125.337L116.426 123.092L115.914 123.204C115.914 123.204 110.657 123.451 107.245 121.557C107.245 121.557 101.351 120.596 99.4254 110.841C97.9525 111.211 96.5207 111.728 95.1517 112.386Z" fill="#656691"></path><path opacity="0.1" d="M98.0517 152.469C98.0517 152.469 112.632 157.057 113.714 157.636C114.796 158.215 98.119 154.049 98.0517 152.469Z" fill="black"></path><path opacity="0.1" d="M107.245 159.477C107.245 159.477 103.412 161.609 102.038 160.85C100.664 160.092 107.245 159.477 107.245 159.477Z" fill="black"></path><path opacity="0.1" d="M119.281 133.996C119.281 133.996 122.971 153.708 117.517 159.477L119.281 133.996Z" fill="black"></path><path opacity="0.1" d="M125.346 104.319C126.028 103.583 126.419 102.624 126.447 101.622C126.474 100.619 126.135 99.6401 125.494 98.8687C125.018 98.33 124.394 97.9215 124.003 97.3155C123.803 96.8931 123.56 96.4929 123.276 96.1214C122.567 95.3941 121.373 95.5872 120.399 95.2909C119.424 94.9946 118.765 94.2763 118.042 93.6254C116.882 92.5686 115.592 91.6635 114.204 90.9319C112.776 90.1867 111.164 89.6211 109.575 89.8815C108.332 90.088 107.223 90.7793 106.006 91.125C104.283 91.6143 102.159 91.5155 101.068 92.9431C100.552 93.6209 100.404 94.5232 99.9147 95.228C99.2234 96.2246 97.9529 96.6915 97.2212 97.6746C96.4176 98.7834 96.5029 100.305 96.8486 101.63C97.0775 102.487 97.4008 103.367 97.1987 104.229C97.1 104.651 96.88 105.041 96.7947 105.468C96.5703 106.581 97.2885 107.636 97.7689 108.669C98.2859 109.786 98.5408 111.007 98.5141 112.237C98.4804 112.513 98.519 112.793 98.6263 113.05C98.7622 113.256 98.9494 113.423 99.1695 113.535L101.234 114.837C101.332 114.905 101.442 114.954 101.558 114.98C101.962 115.043 102.209 114.581 102.456 114.271C103.147 113.445 104.462 113.508 105.436 113.975C106.41 114.442 107.21 115.209 108.188 115.654C110.482 116.7 113.126 115.77 115.609 115.29C116.459 115.168 117.298 114.978 118.118 114.724C118.891 114.411 119.629 114.015 120.318 113.544C121.017 113.15 121.651 112.652 122.199 112.067C122.496 111.744 122.708 111.353 122.817 110.929C122.926 110.504 122.928 110.059 122.823 109.634C122.621 108.911 121.974 108.26 122.105 107.456C122.365 106.065 124.443 105.234 125.346 104.319Z" fill="black"></path><path d="M125.346 103.771C126.028 103.035 126.42 102.075 126.447 101.072C126.474 100.068 126.136 99.0887 125.494 98.3166C125.018 97.7824 124.394 97.3694 124.003 96.7678C123.802 96.3446 123.559 95.9429 123.276 95.5692C122.567 94.8465 121.373 95.0395 120.399 94.7432C119.424 94.4469 118.765 93.7242 118.042 93.0733C116.883 92.0148 115.593 91.1096 114.204 90.3798C112.776 89.6346 111.164 89.069 109.575 89.3293C108.332 89.5358 107.223 90.2271 106.006 90.5728C104.283 91.0621 102.159 90.9589 101.068 92.3685C100.552 93.0508 100.404 93.9531 99.9147 94.6579C99.2234 95.6545 97.9529 96.1214 97.2212 97.1045C96.4176 98.2133 96.5029 99.7351 96.8486 101.059C97.0775 101.912 97.4008 102.797 97.1987 103.659C97.1 104.081 96.88 104.471 96.7947 104.898C96.5703 106.011 97.2885 107.066 97.7689 108.094C98.3017 109.226 98.5645 110.466 98.5365 111.717C98.5028 111.994 98.5415 112.276 98.6487 112.534C98.7872 112.737 98.9738 112.904 99.1919 113.018L101.257 114.316C101.354 114.386 101.464 114.437 101.58 114.464C101.984 114.522 102.231 114.064 102.478 113.75C103.169 112.924 104.485 112.992 105.459 113.454C106.433 113.916 107.232 114.688 108.211 115.133C110.505 116.179 113.149 115.25 115.631 114.774C116.481 114.648 117.32 114.457 118.141 114.204C118.914 113.891 119.651 113.497 120.34 113.027C121.039 112.633 121.674 112.133 122.221 111.546C122.518 111.224 122.73 110.834 122.839 110.41C122.948 109.987 122.95 109.542 122.845 109.117C122.643 108.39 121.997 107.739 122.127 106.94C122.365 105.513 124.443 104.682 125.346 103.771Z" fill="#464353"></path><path d="M78.4746 151.028C78.4028 152.882 79.983 155.356 79.983 155.356C80.4633 156.523 86.371 161.95 86.371 161.95L91.0442 165.092C91.0442 165.092 97.2975 168.94 98.7745 169.626C99.5152 169.972 100.31 171.422 100.925 172.841C101.54 174.259 101.966 175.534 101.966 175.534C103.32 175.335 104.569 174.69 105.514 173.702C106.46 172.713 107.049 171.437 107.187 170.075C107.362 168.307 107.479 166.718 107.326 166.686C106.981 166.619 103.133 163.732 103.133 163.732C103.133 163.732 98.6712 160.846 97.2257 157.964C95.7802 155.082 90.1508 150.682 90.1508 150.682L90.2406 150.516L90.5638 149.924L91.2507 147.657L80.4768 142.849C80.4768 142.849 80.2119 143.724 79.8707 144.923C79.2871 146.943 78.515 149.874 78.4746 151.028Z" fill="#ECB4B6"></path><path opacity="0.1" d="M79.8618 144.936C81.8975 146.941 84.0743 148.796 86.3755 150.489C87.0444 150.88 89.3877 150.637 90.2451 150.53L90.5684 149.937L91.2552 147.67L80.4813 142.862C80.4813 142.862 80.1984 143.729 79.8618 144.936Z" fill="black"></path><path d="M90.5638 136.6C90.5638 136.6 96.0585 139.899 95.7847 141.34C95.5108 142.781 93.181 147.764 93.181 147.764L90.5638 149.928C90.5638 149.928 87.1969 150.408 86.3709 149.928C85.5449 149.448 79.709 144.64 79.5025 143.886C79.296 143.132 79.5025 140.586 79.5025 140.039C79.5025 139.491 81.1501 136.806 81.1501 136.806L83.5562 132.551L90.5638 136.6Z" fill="#656691"></path><path opacity="0.1" d="M109.041 166.3L110.657 170.641L107.932 173.218L107.807 173.994L101.76 177.473L99.8384 172.621L109.041 166.3Z" fill="black"></path><path d="M109.041 166.026L110.657 170.363L107.932 172.944L107.807 173.721L101.76 177.2L99.8384 172.347L109.041 166.026Z" fill="#5E5A6B"></path><g opacity="0.1"><path opacity="0.1" d="M122.23 106.599C122.135 106.352 122.104 106.085 122.14 105.822C122.365 104.417 124.443 103.578 125.346 102.68C125.934 102.067 126.308 101.279 126.41 100.435C126.496 101.04 126.446 101.656 126.261 102.238C126.077 102.82 125.764 103.353 125.346 103.798C124.515 104.61 122.693 105.382 122.23 106.599Z" fill="black"></path><path opacity="0.1" d="M96.8442 104.839C97.0825 105.601 97.4 106.335 97.7914 107.03C98.31 108.147 98.5664 109.368 98.5411 110.599C98.5056 110.876 98.5427 111.157 98.6488 111.416C98.787 111.62 98.9736 111.786 99.192 111.901L101.257 113.198C101.354 113.271 101.466 113.321 101.585 113.346C101.984 113.405 102.231 112.947 102.483 112.637C103.174 111.811 104.494 111.874 105.463 112.336C106.433 112.799 107.237 113.571 108.215 114.02C110.514 115.061 113.153 114.136 115.636 113.656C116.486 113.532 117.325 113.341 118.145 113.086C118.919 112.775 119.656 112.38 120.345 111.91C121.045 111.515 121.681 111.016 122.23 110.428C122.538 110.07 122.756 109.644 122.868 109.185C122.954 109.598 122.942 110.026 122.831 110.433C122.72 110.841 122.514 111.216 122.23 111.528C121.68 112.114 121.044 112.614 120.345 113.01C119.656 113.48 118.919 113.874 118.145 114.186C117.324 114.439 116.485 114.63 115.636 114.756C113.158 115.232 110.514 116.161 108.215 115.115C107.237 114.666 106.419 113.903 105.463 113.436C104.507 112.969 103.174 112.906 102.483 113.732C102.222 114.046 101.975 114.504 101.585 114.446C101.467 114.419 101.355 114.369 101.257 114.298L99.192 113.001C98.9756 112.884 98.7895 112.718 98.6488 112.516C98.5431 112.257 98.506 111.976 98.5411 111.699C98.5664 110.467 98.31 109.247 97.7914 108.13C97.311 107.102 96.5928 106.047 96.8172 104.934C96.8241 104.902 96.8331 104.87 96.8442 104.839Z" fill="black"></path><path opacity="0.1" d="M96.8756 99.9955C97.0956 100.83 97.4098 101.697 97.2347 102.541C97.1539 102.056 97.0013 101.571 96.8756 101.095C96.6607 100.34 96.5846 99.5523 96.6511 98.77C96.6913 99.1841 96.7663 99.5941 96.8756 99.9955Z" fill="black"></path></g><path opacity="0.1" d="M9.71 69.4739C15.0727 69.4739 19.42 65.1266 19.42 59.7639C19.42 54.4012 15.0727 50.0539 9.71 50.0539C4.34732 50.0539 0 54.4012 0 59.7639C0 65.1266 4.34732 69.4739 9.71 69.4739Z" fill="#18A558"></path><path opacity="0.1" d="M273.272 28.5599C278.634 28.5599 282.982 24.2126 282.982 18.8499C282.982 13.4872 278.634 9.13988 273.272 9.13988C267.909 9.13988 263.562 13.4872 263.562 18.8499C263.562 24.2126 267.909 28.5599 273.272 28.5599Z" fill="#18A558"></path><path opacity="0.1" d="M427.316 66.9195C432.679 66.9195 437.026 62.5722 437.026 57.2095C437.026 51.8469 432.679 47.4995 427.316 47.4995C421.954 47.4995 417.606 51.8469 417.606 57.2095C417.606 62.5722 421.954 66.9195 427.316 66.9195Z" fill="#18A558"></path><path opacity="0.1" d="M29.1255 129.606C38.1129 129.606 45.3987 122.32 45.3987 113.333C45.3987 104.345 38.1129 97.0596 29.1255 97.0596C20.1381 97.0596 12.8524 104.345 12.8524 113.333C12.8524 122.32 20.1381 129.606 29.1255 129.606Z" fill="#18A558"></path><path opacity="0.1" d="M227.887 370.677C236.874 370.677 244.16 363.391 244.16 354.404C244.16 345.416 236.874 338.131 227.887 338.131C218.899 338.131 211.613 345.416 211.613 354.404C211.613 363.391 218.899 370.677 227.887 370.677Z" fill="#18A558"></path><path opacity="0.1" d="M444.671 361.295C453.659 361.295 460.945 354.009 460.945 345.022C460.945 336.034 453.659 328.748 444.671 328.748C435.684 328.748 428.398 336.034 428.398 345.022C428.398 354.009 435.684 361.295 444.671 361.295Z" fill="#18A558"></path></g><defs><linearGradient id="paint0_linear" x1="120.556" y1="254.278" x2="120.556" y2="87.2239" gradientUnits="userSpaceOnUse"><stop stop-color="#808080" stop-opacity="0.25"></stop><stop offset="0.54" stop-color="#808080" stop-opacity="0.12"></stop><stop offset="1" stop-color="#808080" stop-opacity="0.1"></stop></linearGradient><clipPath id="clip0"><rect width="500" height="370.672" fill="white"></rect></clipPath></defs></svg> 