<?xml version="1.0" encoding="UTF-8"?> <svg xmlns="http://www.w3.org/2000/svg" xmlns:xlink="http://www.w3.org/1999/xlink" xmlns:svgjs="http://svgjs.com/svgjs" version="1.1" width="512" height="512" x="0" y="0" viewBox="0 0 512 512" style="enable-background:new 0 0 512 512" xml:space="preserve" class=""><g><g xmlns="http://www.w3.org/2000/svg"><path d="m510.962 99.948c0-25.154-13.341-48.916-34.817-62.011l-13.336-8.132v-29.805h-30.016v29.804l-13.335 8.132c-21.477 13.096-34.818 36.857-34.818 62.011v208.211h-28.052v-27.289c0-41.996-20.967-80.802-56.088-103.819l-29.79-19.864v-22.492c12.214-4.347 22.027-14.138 26.184-27.024l-28.566-9.216c-1.679 5.202-6.486 8.698-11.962 8.698-6.928 0-12.565-5.636-12.565-12.564 0-5.064 3.014-9.61 7.679-11.583l-11.694-27.645c-15.795 6.681-26.001 22.079-26.001 39.228 0 17.946 11.165 33.323 26.909 39.58v22.681l-27.799 17.171-.112.07c-36.296 22.865-57.966 62.127-57.966 105.026v29.045h-27.457v-208.213c0-25.154-13.341-48.916-34.817-62.011l-13.336-8.132v-29.805h-30.016v29.804l-13.336 8.132c-21.476 13.097-34.817 36.858-34.817 62.012v412.052h509.925v-412.052zm-75.877-36.385 12.716-7.755 12.717 7.755c12.601 7.684 20.428 21.625 20.428 36.384v22.067h-66.29v-22.066c0-14.759 7.827-28.701 20.429-36.385zm-20.429 119.817v-31.349h66.29v31.349zm66.29 30.016v193.236h-66.29v-193.236zm-252.219-13.877 26.665-16.47 28.611 19.078c18.023 11.798 31.126 29.08 37.728 48.883h-132.646c6.538-21.048 20.359-39.326 39.642-51.491zm-43.895 81.507h141.739v27.132h-141.739zm-133.35-217.463 12.717-7.755 12.717 7.755c12.601 7.684 20.428 21.625 20.428 36.384v22.067h-66.29v-22.066c0-14.759 7.828-28.701 20.428-36.385zm-20.428 119.817v-31.349h66.29v31.349zm66.29 30.016v193.236h-66.29v-193.236zm-66.29 267.402v-44.149h66.29v44.149zm200.825.907v-46.192c0-6.319 11.343-19.372 23.823-29.863 12.482 10.495 23.822 23.545 23.822 29.863v46.192zm32.474-107.293-8.651-6.102-8.651 6.102c-7.545 5.323-45.188 33.284-45.188 61.1v46.192h-74.503v-143.53h257.28v143.53h-75.099v-46.192c0-27.816-37.643-55.777-45.188-61.1zm150.303 106.386v-44.149h66.29v44.149z" fill="#18a558" data-original="#000000" style="" class=""></path></g></g></svg> 