<?xml version="1.0" encoding="UTF-8"?> <svg xmlns="http://www.w3.org/2000/svg" xmlns:xlink="http://www.w3.org/1999/xlink" xmlns:svgjs="http://svgjs.com/svgjs" version="1.1" width="512" height="512" x="0" y="0" viewBox="0 0 512 512" style="enable-background:new 0 0 512 512" xml:space="preserve" class=""><g><path xmlns="http://www.w3.org/2000/svg" d="m451 190.088v-129.088h-129.087l-65.913-61-65.913 61h-129.087v129.088l-61 65.912 61 65.912v129.088h129.087l65.913 61 65.913-61h129.087v-129.088l61-65.912zm-30 120v110.912h-110.913l-54.087 50.482-54.087-50.482h-110.913v-110.912l-50.482-54.088 50.482-54.088v-110.912h110.913l54.087-50.482 54.087 50.482h110.913v110.912l50.482 54.088z" fill="#18a558" data-original="#000000" style=""></path><path xmlns="http://www.w3.org/2000/svg" d="m331 301c-49.626 0-90-40.374-90-90 0-24.266 9.588-47.048 26.998-64.149l25.767-25.851-35.358.159c-.588-.076-1.423-.159-2.407-.159-74.439 0-135 60.561-135 135s60.561 135 135 135c50.335 0 96.137-28.111 119.531-73.363l16.518-31.95-34.324 10.746c-9.951 3.116-18.443 4.567-26.725 4.567zm-75 60c-57.897 0-105-47.103-105-105 0-46.893 30.9-86.705 73.408-100.145-8.768 16.839-13.408 35.628-13.408 55.145 0 65.482 52.726 118.882 117.949 119.983-19.256 18.993-45.227 30.017-72.949 30.017z" fill="#18a558" data-original="#000000" style=""></path><path xmlns="http://www.w3.org/2000/svg" d="m331 151h30v30h-30z" fill="#18a558" data-original="#000000" style=""></path><path xmlns="http://www.w3.org/2000/svg" d="m301 181h30v30h-30z" fill="#18a558" data-original="#000000" style=""></path><path xmlns="http://www.w3.org/2000/svg" d="m331 211h30v30h-30z" fill="#18a558" data-original="#000000" style=""></path><path xmlns="http://www.w3.org/2000/svg" d="m361 181h30v30h-30z" fill="#18a558" data-original="#000000" style=""></path></g></svg> 