<?xml version="1.0" encoding="UTF-8"?> <svg xmlns="http://www.w3.org/2000/svg" xmlns:xlink="http://www.w3.org/1999/xlink" xmlns:svgjs="http://svgjs.com/svgjs" version="1.1" width="512" height="512" x="0" y="0" viewBox="0 0 512 512" style="enable-background:new 0 0 512 512" xml:space="preserve" class=""><g> <g xmlns="http://www.w3.org/2000/svg"> <g> <path d="M482,91.03H30c-16.542,0-30,13.458-30,30v269.94c0,16.542,13.458,30,30,30h452c16.542,0,30-13.458,30-30V121.03 C512,104.488,498.542,91.03,482,91.03z M482.013,308.958h-45.191V203.042h45.184L482.013,308.958z M271,218.896 c14.772,5.926,25.229,20.319,25.229,37.104c0,16.785-10.457,31.179-25.229,37.104V218.896z M30,203.042h45.178v105.916H30V203.042 z M241,293.104c-14.772-5.926-25.229-20.319-25.229-37.104c0-16.785,10.457-31.179,25.229-37.104V293.104z M241,187.624 c-31.539,6.869-55.229,34.91-55.229,68.376s23.69,61.507,55.229,68.376v66.594H30v-52.012h60.178c8.284,0,15-6.716,15-15V188.042 c0-8.284-6.716-15-15-15H30V121.03h211V187.624z M482,390.97H271v-66.594c31.539-6.869,55.229-34.91,55.229-68.376 s-23.69-61.507-55.229-68.376V121.03h211l0.004,52.012h-60.181c-8.284,0-15,6.716-15,15v135.916c0,8.284,6.716,15,15,15h60.193 l0.003,52.011C482.019,390.969,482.013,390.97,482,390.97z" fill="#18a558" data-original="#000000" style="" class=""></path> </g> </g> <g xmlns="http://www.w3.org/2000/svg"> </g> <g xmlns="http://www.w3.org/2000/svg"> </g> <g xmlns="http://www.w3.org/2000/svg"> </g> <g xmlns="http://www.w3.org/2000/svg"> </g> <g xmlns="http://www.w3.org/2000/svg"> </g> <g xmlns="http://www.w3.org/2000/svg"> </g> <g xmlns="http://www.w3.org/2000/svg"> </g> <g xmlns="http://www.w3.org/2000/svg"> </g> <g xmlns="http://www.w3.org/2000/svg"> </g> <g xmlns="http://www.w3.org/2000/svg"> </g> <g xmlns="http://www.w3.org/2000/svg"> </g> <g xmlns="http://www.w3.org/2000/svg"> </g> <g xmlns="http://www.w3.org/2000/svg"> </g> <g xmlns="http://www.w3.org/2000/svg"> </g> <g xmlns="http://www.w3.org/2000/svg"> </g> </g></svg> 